<svg width="20" height="9" viewBox="0 0 20 9" fill="none" xmlns="http://www.w3.org/2000/svg">
<path d="M10.0059 8.41002L10.0059 8.40988L9.99403 8.41002C8.80785 8.42412 7.66414 7.96926 6.81166 7.14453L1.18022 1.45329C1.10453 1.35937 1.06522 1.24109 1.06989 1.12023C1.07475 0.994391 1.12692 0.875022 1.21597 0.785974C1.30501 0.696926 1.42438 0.64476 1.55022 0.6399C1.67072 0.635245 1.78865 0.674295 1.88243 0.74954L7.52642 6.39354L7.5263 6.39366L7.53582 6.40269C8.201 7.03385 9.08301 7.3857 9.99998 7.3857C10.9169 7.3857 11.799 7.03385 12.4641 6.40269L12.4643 6.40282L12.4735 6.39354L18.1175 0.749536C18.2113 0.674294 18.3292 0.635245 18.4497 0.6399C18.5756 0.64476 18.6949 0.696926 18.784 0.785974C18.873 0.87502 18.9252 0.994388 18.9301 1.12023C18.9347 1.2411 18.8954 1.35938 18.8197 1.45329L13.1883 7.14453C12.3358 7.96926 11.1921 8.42412 10.0059 8.41002Z" fill="black" stroke="#91919F"/>
</svg>
