<svg width="12" height="12" viewBox="0 0 12 12" fill="none" xmlns="http://www.w3.org/2000/svg">
<path d="M7.05753 5.99996L11.3025 1.75496C11.381 1.68773 11.4448 1.60499 11.4898 1.51194C11.5348 1.41889 11.5601 1.31754 11.5641 1.21425C11.5681 1.11096 11.5507 1.00796 11.513 0.911718C11.4753 0.815475 11.4181 0.728063 11.345 0.654972C11.2719 0.581881 11.1845 0.524688 11.0883 0.486982C10.992 0.449276 10.889 0.431872 10.7857 0.435862C10.6824 0.439851 10.5811 0.465148 10.488 0.510166C10.395 0.555183 10.3123 0.618949 10.245 0.697461L6.00003 4.94246L1.75503 0.697461C1.61155 0.574591 1.42699 0.510386 1.23824 0.517677C1.04948 0.524968 0.870425 0.603217 0.736854 0.736788C0.603283 0.870359 0.525033 1.04941 0.517742 1.23817C0.510452 1.42693 0.574656 1.61148 0.697526 1.75496L4.94253 5.99996L0.697526 10.245C0.557838 10.3855 0.479431 10.5756 0.479431 10.7737C0.479431 10.9718 0.557838 11.1619 0.697526 11.3025C0.838048 11.4421 1.02814 11.5206 1.22628 11.5206C1.42442 11.5206 1.6145 11.4421 1.75503 11.3025L6.00003 7.05746L10.245 11.3025C10.3855 11.4421 10.5756 11.5206 10.7738 11.5206C10.9719 11.5206 11.162 11.4421 11.3025 11.3025C11.4422 11.1619 11.5206 10.9718 11.5206 10.7737C11.5206 10.5756 11.4422 10.3855 11.3025 10.245L7.05753 5.99996Z" fill="white"/>
</svg>
