<svg width="12" height="12" viewBox="0 0 12 12" fill="none" xmlns="http://www.w3.org/2000/svg">
<path d="M7.05747 5.99996L11.3025 1.75496C11.381 1.68773 11.4447 1.60499 11.4898 1.51194C11.5348 1.41889 11.5601 1.31754 11.5641 1.21425C11.5681 1.11096 11.5507 1.00796 11.5129 0.911718C11.4752 0.815475 11.418 0.728063 11.345 0.654972C11.2719 0.581881 11.1845 0.524688 11.0882 0.486982C10.992 0.449276 10.889 0.431872 10.7857 0.435862C10.6824 0.439851 10.581 0.465148 10.488 0.510166C10.3949 0.555183 10.3122 0.618949 10.245 0.697461L5.99997 4.94246L1.75497 0.697461C1.61149 0.574591 1.42693 0.510386 1.23818 0.517677C1.04942 0.524968 0.870364 0.603217 0.736793 0.736788C0.603222 0.870359 0.524972 1.04941 0.517681 1.23817C0.51039 1.42693 0.574595 1.61148 0.697465 1.75496L4.94247 5.99996L0.697465 10.245C0.557777 10.3855 0.47937 10.5756 0.47937 10.7737C0.47937 10.9718 0.557777 11.1619 0.697465 11.3025C0.837987 11.4421 1.02808 11.5206 1.22622 11.5206C1.42435 11.5206 1.61444 11.4421 1.75497 11.3025L5.99997 7.05746L10.245 11.3025C10.3855 11.4421 10.5756 11.5206 10.7737 11.5206C10.9719 11.5206 11.1619 11.4421 11.3025 11.3025C11.4422 11.1619 11.5206 10.9718 11.5206 10.7737C11.5206 10.5756 11.4422 10.3855 11.3025 10.245L7.05747 5.99996Z" fill="white"/>
</svg>
