<svg width="24" height="24" viewBox="0 0 24 24" fill="none" xmlns="http://www.w3.org/2000/svg">
<path d="M12 24C14.3734 24 16.6934 23.2962 18.6668 21.9776C20.6402 20.6591 22.1783 18.7849 23.0865 16.5922C23.9948 14.3995 24.2324 11.9867 23.7694 9.65892C23.3064 7.33114 22.1635 5.19295 20.4853 3.51472C18.807 1.83649 16.6689 0.693599 14.3411 0.230577C12.0133 -0.232446 9.60051 0.00519436 7.4078 0.913445C5.21508 1.8217 3.34094 3.35976 2.02236 5.33315C0.703784 7.30655 -4.46549e-06 9.62662 -4.67297e-06 12C-4.9512e-06 15.1826 1.26428 18.2348 3.51471 20.4853C5.76515 22.7357 8.8174 24 12 24ZM13 17C13 17.2652 12.8946 17.5196 12.7071 17.7071C12.5196 17.8946 12.2652 18 12 18C11.7348 18 11.4804 17.8946 11.2929 17.7071C11.1054 17.5196 11 17.2652 11 17L11 11C11 10.7348 11.1054 10.4804 11.2929 10.2929C11.4804 10.1054 11.7348 10 12 10C12.2652 10 12.5196 10.1054 12.7071 10.2929C12.8946 10.4804 13 10.7348 13 11L13 17ZM12 6C12.1978 6 12.3911 6.05865 12.5556 6.16853C12.72 6.27841 12.8482 6.43459 12.9239 6.61732C12.9996 6.80004 13.0194 7.00111 12.9808 7.19509C12.9422 7.38907 12.847 7.56725 12.7071 7.70711C12.5672 7.84696 12.3891 7.9422 12.1951 7.98078C12.0011 8.01937 11.8 7.99957 11.6173 7.92388C11.4346 7.84819 11.2784 7.72002 11.1685 7.55557C11.0586 7.39112 11 7.19778 11 7C11 6.73478 11.1054 6.48043 11.2929 6.29289C11.4804 6.10536 11.7348 6 12 6Z" fill="#212325"/>
</svg>
