<svg width="20" height="10" viewBox="0 0 20 10" fill="none" xmlns="http://www.w3.org/2000/svg">
<path d="M10.006 8.91003L10.006 8.90989L9.99409 8.91003C8.80791 8.92413 7.66421 8.46928 6.81172 7.64454L1.18028 1.9533C1.10459 1.85939 1.06528 1.74111 1.06995 1.62024C1.07481 1.49441 1.12698 1.37504 1.21603 1.28599C1.30508 1.19694 1.42444 1.14478 1.55028 1.13991C1.67078 1.13526 1.78871 1.17431 1.88249 1.24956L7.52648 6.89355L7.52636 6.89367L7.53588 6.90271C8.20106 7.53387 9.08307 7.88572 10 7.88572C10.917 7.88572 11.799 7.53387 12.4642 6.90271L12.4643 6.90283L12.4736 6.89355L18.1176 1.24955C18.2114 1.17431 18.3293 1.13526 18.4498 1.13991C18.5756 1.14478 18.695 1.19694 18.784 1.28599C18.8731 1.37503 18.9253 1.4944 18.9301 1.62025C18.9348 1.74111 18.8955 1.85939 18.8198 1.95331L13.1884 7.64454C12.3359 8.46928 11.1922 8.92413 10.006 8.91003Z" fill="black" stroke="#91919F"/>
</svg>
