<svg width="21" height="22" viewBox="0 0 21 22" fill="none" xmlns="http://www.w3.org/2000/svg">
<path d="M2.78344 13.8136L2.78299 13.814C2.15203 14.4434 1.72215 15.2459 1.54785 16.1199C1.37355 16.9939 1.46267 17.9 1.80393 18.7232C2.14519 19.5465 2.72321 20.2499 3.46471 20.7442C4.20551 21.2381 5.07614 21.5011 5.96644 21.5C6.55916 21.4925 7.14456 21.368 7.68902 21.1335C8.23428 20.8987 8.72769 20.5584 9.14083 20.1321L9.14649 20.1262L9.14654 20.1263L17.6363 11.6465C17.6364 11.6464 17.6365 11.6463 17.6365 11.6463C18.8555 10.4272 19.5402 8.77395 19.5402 7.05004C19.5402 5.32604 18.8554 3.67265 17.6363 2.45359C16.4173 1.23454 14.7639 0.549683 13.0399 0.549683C11.3163 0.549683 9.66331 1.2342 8.44434 2.45269C8.44404 2.45299 8.44374 2.45329 8.44344 2.45359L3.5101 7.43678C3.43442 7.53068 3.39513 7.64895 3.3998 7.76979C3.40466 7.89563 3.45683 8.015 3.54588 8.10405C3.63492 8.1931 3.75429 8.24526 3.88013 8.25012C4.00028 8.25476 4.11788 8.21595 4.21152 8.14114L9.14456 3.15827L9.14658 3.15624C10.1793 2.12499 11.5793 1.54623 13.0388 1.54726C14.4982 1.54829 15.8974 2.12904 16.9287 3.16174C17.9599 4.19444 18.5387 5.5945 18.5377 7.05393C18.5366 8.51324 17.956 9.91238 16.9234 10.9436L2.78344 13.8136ZM2.78344 13.8136L11.2634 5.33359L11.2639 5.33318M2.78344 13.8136L11.2639 5.33318M11.2639 5.33318C11.7325 4.86347 12.3685 4.59915 13.0319 4.59837C13.6954 4.59759 14.332 4.86041 14.8017 5.32901C15.2715 5.79761 15.5358 6.43361 15.5366 7.09709C15.5373 7.76038 15.2747 8.39682 14.8063 8.86649C14.8062 8.86662 14.8061 8.86676 14.8059 8.8669L6.31739 17.3554C6.31725 17.3556 6.31712 17.3557 6.31698 17.3558C6.22334 17.4487 6.09679 17.5008 5.96489 17.5008C5.8328 17.5008 5.70607 17.4486 5.61239 17.3554L5.61199 17.355M11.2639 5.33318L5.61199 17.355M5.61199 17.355C5.56512 17.3086 5.52792 17.2533 5.50254 17.1923C5.47716 17.1314 5.46409 17.066 5.46409 17C5.46409 16.934 5.47716 16.8687 5.50254 16.8078C5.52792 16.7468 5.56512 16.6915 5.61199 16.645L5.61344 16.6436M5.61199 17.355L5.61344 16.6436M5.61344 16.6436L14.092 8.16504C14.0922 8.16478 14.0925 8.16453 14.0928 8.16428C14.233 8.02499 14.3443 7.85936 14.4203 7.6769C14.4965 7.49412 14.5357 7.29806 14.5357 7.10004C14.5357 6.90202 14.4965 6.70596 14.4203 6.52317C14.3442 6.34039 14.2326 6.17449 14.092 6.03504C13.811 5.75591 13.431 5.59925 13.0349 5.59925C12.6386 5.59925 12.2584 5.75606 11.9774 6.03544L11.9774 6.03544M5.61344 16.6436L11.9774 6.03544M11.9774 6.03544L3.48738 14.4754L3.48592 14.4769M11.9774 6.03544L3.48592 14.4769M3.48592 14.4769C2.83 15.1344 2.46212 16.0255 2.46322 16.9542M3.48592 14.4769L2.46322 16.9542M2.46322 16.9542C2.46431 17.8829 2.83429 18.7731 3.49175 19.429M2.46322 16.9542L3.49175 19.429M3.49175 19.429C4.14921 20.0849 5.04031 20.4528 5.96901 20.4517M3.49175 19.429L5.96901 20.4517M5.96901 20.4517C6.89751 20.4506 7.78756 20.0808 8.44344 19.4236L5.96901 20.4517ZM8.44386 19.4232L16.9232 10.9438L8.44386 19.4232Z" fill="black" stroke="#91919F"/>
</svg>
