<svg width="24" height="24" viewBox="0 0 24 24" fill="none" xmlns="http://www.w3.org/2000/svg">
<path d="M23 16C22.7348 16 22.4804 16.1054 22.2929 16.2929C22.1054 16.4804 22 16.7348 22 17V21C22 21.2652 21.8946 21.5196 21.7071 21.7071C21.5196 21.8946 21.2652 22 21 22H3C2.73478 22 2.48043 21.8946 2.29289 21.7071C2.10536 21.5196 2 21.2652 2 21V17C2 16.7348 1.89464 16.4804 1.70711 16.2929C1.51957 16.1054 1.26522 16 1 16C0.734784 16 0.48043 16.1054 0.292893 16.2929C0.105357 16.4804 0 16.7348 0 17V21C0 21.7956 0.316071 22.5587 0.87868 23.1213C1.44129 23.6839 2.20435 24 3 24H21C21.7956 24 22.5587 23.6839 23.1213 23.1213C23.6839 22.5587 24 21.7956 24 21V17C24 16.7348 23.8946 16.4804 23.7071 16.2929C23.5196 16.1054 23.2652 16 23 16Z" fill="white"/>
<path d="M9.87999 17.12C10.4425 17.6818 11.205 17.9974 12 17.9974C12.795 17.9974 13.5575 17.6818 14.12 17.12L19.78 11.46C19.9662 11.2726 20.0708 11.0192 20.0708 10.755C20.0708 10.4908 19.9662 10.2374 19.78 10.05C19.687 9.95627 19.5764 9.88188 19.4546 9.83111C19.3327 9.78034 19.202 9.7542 19.07 9.7542C18.938 9.7542 18.8073 9.78034 18.6854 9.83111C18.5636 9.88188 18.453 9.95627 18.36 10.05L13 15.41V1C13 0.734784 12.8946 0.48043 12.7071 0.292893C12.5196 0.105357 12.2652 0 12 0C11.7348 0 11.4804 0.105357 11.2929 0.292893C11.1053 0.48043 11 0.734784 11 1V15.41L5.63999 10.05C5.54703 9.95627 5.43643 9.88188 5.31457 9.83111C5.19271 9.78034 5.062 9.7542 4.92999 9.7542C4.79798 9.7542 4.66727 9.78034 4.54542 9.83111C4.42356 9.88188 4.31296 9.95627 4.21999 10.05C4.03374 10.2374 3.9292 10.4908 3.9292 10.755C3.9292 11.0192 4.03374 11.2726 4.21999 11.46L9.87999 17.12Z" fill="white"/>
</svg>
