<svg width="193" height="192" viewBox="0 0 193 192" fill="none" xmlns="http://www.w3.org/2000/svg">
<g filter="url(#filter0_i_3470_864)">
<path d="M176.461 149.194C186.595 133.978 192.5 115.704 192.5 96.0512C192.5 55.5993 167.48 20.9911 132.071 6.85718" stroke="#7F3DFF" stroke-width="24" stroke-linecap="round"/>
<path d="M96.5 -1.55488e-06C109.067 -1.00554e-06 121.071 2.41488 132.071 6.80593" stroke="#7F3DFF" stroke-width="24" stroke-linecap="round"/>
<path d="M96.5 0C69.905 -1.1625e-06 45.8359 10.8144 28.4502 28.2857" stroke="#FCAC12" stroke-width="24" stroke-linecap="round"/>
<path d="M96.5 192C77.3976 192 59.5983 186.421 44.6428 176.803C18.0889 159.726 0.499988 129.917 0.49999 95.9999C0.499991 69.5756 11.1761 45.6448 28.4502 28.2856" stroke="#FCAC12" stroke-width="24" stroke-linecap="round"/>
<path d="M96.4999 192C129.866 192 159.257 174.977 176.461 149.143" stroke="#FD3C4A" stroke-width="24" stroke-linecap="round"/>
<path d="M192.5 96.0513C192.5 115.704 186.595 133.978 176.461 149.194" stroke="#7F3DFF" stroke-width="24" stroke-linecap="round"/>
</g>
<defs>
<filter id="filter0_i_3470_864" x="-11.5" y="-12" width="216" height="224" filterUnits="userSpaceOnUse" color-interpolation-filters="sRGB">
<feFlood flood-opacity="0" result="BackgroundImageFix"/>
<feBlend mode="normal" in="SourceGraphic" in2="BackgroundImageFix" result="shape"/>
<feColorMatrix in="SourceAlpha" type="matrix" values="0 0 0 0 0 0 0 0 0 0 0 0 0 0 0 0 0 0 127 0" result="hardAlpha"/>
<feOffset dy="8"/>
<feGaussianBlur stdDeviation="4"/>
<feComposite in2="hardAlpha" operator="arithmetic" k2="-1" k3="1"/>
<feColorMatrix type="matrix" values="0 0 0 0 1 0 0 0 0 1 0 0 0 0 1 0 0 0 0.56 0"/>
<feBlend mode="normal" in2="shape" result="effect1_innerShadow_3470_864"/>
</filter>
</defs>
</svg>
