<svg width="64" height="18" viewBox="0 0 64 18" fill="none" xmlns="http://www.w3.org/2000/svg">
<g clip-path="url(#clip0_1193_6235)">
<path d="M0.430002 12.3691C0.430002 11.475 0.414006 10.7266 0.364563 10.0569H2.09579L2.17795 11.2059H2.22594C2.61785 10.5994 3.33622 9.88078 4.67554 9.88078C5.72111 9.88078 6.53692 10.456 6.88011 11.3167H6.91356C7.19131 10.8863 7.51705 10.5668 7.89223 10.3445C8.33358 10.0406 8.8411 9.88078 9.49331 9.88078C10.8166 9.88078 12.1545 10.7578 12.1545 13.2476V17.8237H10.195V13.533C10.195 12.242 9.73762 11.475 8.77421 11.475C8.08855 11.475 7.58176 11.9551 7.37018 12.5133C7.3113 12.7263 7.27835 12.9453 7.27202 13.1659V17.8244H5.31248V13.325C5.31248 12.2427 4.87186 11.4758 3.94044 11.4758C3.1908 11.4758 2.68474 12.051 2.50297 12.5921C2.42226 12.7838 2.38881 13.0082 2.38881 13.2298V17.8244H0.430002V12.3691ZM19.7898 15.9589C19.7898 16.6598 19.8225 17.3451 19.9032 17.8244H18.0905L17.9604 16.9637H17.911C17.4209 17.5702 16.5876 17.9991 15.561 17.9991C13.9599 17.9991 13.0619 16.8679 13.0619 15.6869C13.0619 13.7234 14.8404 12.7363 17.7815 12.7519V12.6248C17.7815 12.1135 17.5685 11.2684 16.1637 11.2684C15.3792 11.2684 14.5634 11.5084 14.0246 11.8422L13.6327 10.5661C14.2209 10.2145 15.2498 9.88007 16.5062 9.88007C19.0547 9.88007 19.7905 11.4608 19.7905 13.1496L19.7898 15.9589ZM17.8295 14.0294C16.408 13.9968 15.0534 14.3 15.0534 15.4803C15.0534 16.2458 15.561 16.5973 16.1972 16.5973C16.9963 16.5973 17.5852 16.0853 17.7648 15.5278C17.8088 15.3884 17.8308 15.2433 17.8302 15.0975V14.0294H17.8295ZM21.1771 12.3691C21.1771 11.475 21.1604 10.7266 21.1131 10.0569H22.8749L22.9723 11.2229H23.0217C23.3642 10.6158 24.2302 9.88078 25.5528 9.88078C26.9415 9.88078 28.3776 10.7578 28.3776 13.2156V17.8237H26.3693V13.4386C26.3693 12.3222 25.944 11.4743 24.8504 11.4743C24.0513 11.4743 23.4944 12.0332 23.2828 12.6241C23.2173 12.7988 23.2013 13.0388 23.2013 13.2603V17.823H21.1764L21.1771 12.3691ZM37.0868 6.93652V15.6393C37.0868 16.4368 37.1202 17.2996 37.1522 17.8244H35.357L35.2748 16.5973H35.2414C34.7688 17.458 33.8039 17.9998 32.6456 17.9998C30.7508 17.9998 29.2494 16.4212 29.2494 14.0301C29.2319 11.4296 30.897 9.88149 32.8092 9.88149C33.9028 9.88149 34.6866 10.3282 35.0458 10.9048H35.08V6.93723H37.0875V6.93652H37.0868ZM35.0793 13.2944C35.0793 13.1361 35.0633 12.9443 35.0298 12.7838C34.8502 12.0197 34.2147 11.3969 33.2993 11.3969C32.0094 11.3969 31.2896 12.514 31.2896 13.9648C31.2896 15.383 32.0087 16.4205 33.2833 16.4205C34.0984 16.4205 34.8175 15.8772 35.0131 15.0322C35.0625 14.8575 35.08 14.665 35.08 14.4584V13.2944H35.0793ZM38.5075 17.8244V10.0569H40.534V17.8244H38.5075ZM41.9533 12.5616C41.9533 11.5091 41.938 10.7585 41.8893 10.0576H43.6365L43.7005 11.5397H43.7666C44.1586 10.4397 45.0885 10.0576 45.9399 10.0576C46.1355 10.0576 46.249 10.0249 46.4118 10.0576V11.7811C46.2191 11.7395 46.0224 11.718 45.8251 11.7172C44.8595 11.7172 44.2065 12.3237 44.0277 13.1993C43.9881 13.3997 43.9665 13.6031 43.963 13.8072V17.8251H41.9533V12.5616ZM47.344 17.8244V10.0569H49.3675V17.8244H47.344Z" fill="#0D2B5B"/>
<path d="M61.9721 1.84209C60.9695 0.725036 59.9035 1.23066 59.0565 1.64183C58.7002 1.81369 56.1284 3.23752 56.1284 3.23752C54.7193 3.80493 53.6221 3.18568 53.1917 2.66444C53.1505 2.61501 53.1133 2.56254 53.0804 2.5075L52.9801 2.33777C52.8105 2.0513 52.622 1.77589 52.4159 1.5133C52.2907 1.35413 52.1552 1.20302 52.0101 1.06093C51.046 0.110052 49.5053 -0.555352 46.9299 0.653312C45.7105 1.34357 41.7384 3.55993 41.7384 3.55993C40.2456 4.16 39.1041 3.42926 38.7333 2.8931C38.7166 2.87303 38.702 2.85138 38.6896 2.82848L38.6409 2.74752L38.3893 2.34558C38.2758 2.16951 38.154 1.99866 38.0243 1.83357C37.898 1.67541 37.7623 1.52461 37.6179 1.38192C36.6603 0.436718 35.1276 -0.227266 32.5747 0.958673C31.0311 1.81937 27.4407 3.8241 27.4407 3.8241L27.4392 3.82552L24.8115 5.29197L26.1711 6.92246C26.7434 7.45506 27.8188 8.32854 29.4824 7.59212C29.4824 7.59212 34.074 4.99513 34.0922 4.98732C38.0178 2.88316 39.9548 4.89358 40.8113 6.23362C40.8411 6.27551 40.8651 6.32096 40.892 6.36144L40.8935 6.36357C40.9044 6.37991 40.9109 6.39482 40.9204 6.41044L41.0171 6.56525C41.4344 7.18308 42.0925 7.58218 42.877 7.56371C43.3096 7.55519 43.6034 7.41742 44.0309 7.18521L48.4735 4.66846L48.483 4.6642C52.458 2.53448 54.4277 4.67627 55.269 6.01631C55.3344 6.13207 55.4086 6.24285 55.4849 6.34582C55.9016 6.8976 56.476 7.25906 57.206 7.24131C57.6881 7.23208 58.2283 6.94944 58.309 6.8976L63.635 3.89512C63.6365 3.89654 63.0926 3.09336 61.9721 1.84209Z" fill="#FDD213"/>
</g>
<defs>
<clipPath id="clip0_1193_6235">
<rect width="63.2892" height="18" fill="white" transform="translate(0.355408)"/>
</clipPath>
</defs>
</svg>
