<svg width="22" height="24" viewBox="0 0 22 24" fill="none" xmlns="http://www.w3.org/2000/svg">
<g clip-path="url(#clip0_1193_6243)">
<path d="M18.0847 1.8682C16.9776 0.606054 14.9763 0.0649414 12.4161 0.0649414H4.98562C4.73231 0.0649508 4.48732 0.155342 4.29468 0.319864C4.10204 0.484385 3.9744 0.712245 3.9347 0.962478L0.840792 20.589C0.779296 20.976 1.07891 21.3265 1.47109 21.3265H6.0584L7.21047 14.0175L7.17472 14.2464C7.25679 13.7298 7.69855 13.3487 8.22167 13.3487H10.4015C14.6839 13.3487 18.0371 11.6089 19.0166 6.57617C19.0457 6.42733 19.0708 6.28245 19.0926 6.14092C18.969 6.07543 18.969 6.07543 19.0926 6.14092C19.3843 4.28076 19.0906 3.01456 18.0847 1.8682Z" fill="#27346A"/>
<path d="M8.96575 5.47082C9.09116 5.41109 9.22832 5.38014 9.36723 5.38023H15.1926C15.8824 5.38023 16.5258 5.42513 17.1137 5.51978C17.2783 5.54601 17.4419 5.57734 17.6045 5.61371C17.835 5.66457 18.0627 5.72682 18.287 5.80023C18.5761 5.89678 18.8453 6.00923 19.0927 6.14091C19.3843 4.28004 19.0906 3.01456 18.0847 1.8682C16.9769 0.606054 14.9763 0.0649414 12.4161 0.0649414H4.98499C4.46179 0.0649414 4.01669 0.445921 3.9347 0.962478L0.840793 20.5883C0.779296 20.9759 1.07891 21.3259 1.47046 21.3259H6.0584L8.44859 6.16539C8.47209 6.01638 8.53144 5.8753 8.62153 5.75431C8.71161 5.63332 8.82974 5.53603 8.96575 5.47082Z" fill="#27346A"/>
<path d="M19.0166 6.57588C18.0371 11.6079 14.684 13.3484 10.4015 13.3484H8.22102C7.6979 13.3484 7.25606 13.7295 7.17478 14.2461L5.74153 23.3339C5.68798 23.6726 5.94985 23.9795 6.29246 23.9795H10.1594C10.381 23.9795 10.5952 23.9004 10.7636 23.7564C10.932 23.6125 11.0435 23.4132 11.0782 23.1944L11.1158 22.9973L11.8446 18.3772L11.8916 18.1219C11.9262 17.903 12.0377 17.7038 12.2061 17.5598C12.3745 17.4159 12.5887 17.3368 12.8102 17.3367H13.389C17.1349 17.3367 20.0681 15.8145 20.9253 11.4122C21.283 9.57247 21.0979 8.03647 20.1515 6.95758C19.8644 6.6308 19.5079 6.36092 19.0926 6.14062C19.0701 6.28288 19.0457 6.42704 19.0166 6.57588Z" fill="#2790C3"/>
<path d="M18.0676 5.73235C17.9148 5.68774 17.7607 5.64825 17.6053 5.61394C17.4426 5.57816 17.279 5.54705 17.1145 5.52064C16.5259 5.42535 15.883 5.38037 15.1926 5.38037H9.36792C9.22892 5.38006 9.09165 5.41128 8.96645 5.47168C8.83029 5.5367 8.71202 5.63392 8.6219 5.75495C8.53177 5.87598 8.4725 6.01715 8.44921 6.16625L7.21117 14.0177L7.17542 14.2466C7.25685 13.73 7.69861 13.3489 8.22181 13.3489H10.4023C14.6847 13.3489 18.0378 11.6092 19.0173 6.5764C19.0464 6.42755 19.0709 6.28331 19.0934 6.14114C18.8453 6.01017 18.5769 5.89701 18.2877 5.80109C18.2148 5.7769 18.1414 5.75398 18.0676 5.73235" fill="#1F264F"/>
</g>
<defs>
<clipPath id="clip0_1193_6243">
<rect width="20.34" height="24" fill="white" transform="translate(0.830017)"/>
</clipPath>
</defs>
</svg>
