<svg width="44" height="18" viewBox="0 0 44 18" fill="none" xmlns="http://www.w3.org/2000/svg">
<path d="M31.9766 1.90686L29.4377 6.66385C28.4794 5.86058 27.3092 5.26933 25.8161 5.26933C22.2829 5.26933 20.8478 7.98809 20.8478 9.90318C20.8478 11.3247 21.7495 13.4221 24.8933 13.4221C26.2128 13.4221 28.0888 12.4745 28.6287 12.0433L26.1176 17.5622C24.9207 17.8087 24.5276 17.9616 23.5143 17.9939C17.8875 18.1673 15.6137 14.5991 15.6154 10.953C15.6191 6.13293 19.7705 0.271013 26.6525 0.271013C27.0743 0.271013 27.5901 0.421555 28.0311 0.588376L28.4768 0" fill="#0060AF"/>
<path d="M42.4527 0.149414L43.1717 17.4391H37.8211L37.818 14.4738H34.1695L32.9687 17.4391H27.166L33.2326 5.09277L31.8646 5.08358L34.4638 0.149414H42.4527ZM37.7833 5.43867L35.7205 10.4676H37.8454" fill="#0060AF"/>
<path d="M12.2375 0.149877C14.8872 0.165198 16.3845 1.64993 16.3845 3.79467C16.3845 5.77182 14.8054 7.52201 13.0719 8.42698C14.8566 9.10422 15.0109 10.7667 15.0109 11.9429C15.0109 14.7844 12.2488 17.4395 8.65847 17.4395H0.828369L3.88271 5.26522L2.62809 5.25775L5.1928 0.149877C5.1928 0.149877 10.0829 0.134554 12.2375 0.149877ZM9.63793 7.15982C10.186 7.15982 11.1538 7.01656 11.3957 5.92159C11.6609 4.73297 10.7526 4.70098 10.317 4.70098L8.76033 4.69394L8.21745 7.15988L9.63793 7.15982ZM7.43707 10.2151L6.72034 13.0566H8.55327C9.27446 13.0566 10.2573 12.6871 10.4981 11.7625C10.7359 10.8351 10.0489 10.2151 9.33031 10.2151" fill="#0060AF"/>
</svg>
