<svg width="32" height="22" viewBox="0 0 32 22" fill="none" xmlns="http://www.w3.org/2000/svg">
<path d="M9.84081 17.1727L9.78276 17.2284C8.87123 18.1477 7.81639 18.6334 6.72981 18.6334C4.4605 18.6334 2.81429 16.9483 2.81429 14.6241C2.81429 12.3034 4.4605 10.6157 6.72981 10.6157C7.81639 10.6157 8.87123 11.104 9.78276 12.0269L9.84081 12.0817L11.3002 10.3347L11.2612 10.288C10.0476 8.86868 8.59097 8.17832 6.80055 8.17832C5.0056 8.17832 3.36212 8.77711 2.1794 9.85529C0.891457 11.0241 0.213928 12.6724 0.213928 14.6241C0.213928 16.5757 0.891457 18.2276 2.1794 19.3964C3.36212 20.4809 5.0056 21.0752 6.80055 21.0752C8.59097 21.0752 10.0476 20.3839 11.2612 18.9637L11.3002 18.9206L9.84081 17.1727Z" fill="#004685"/>
<path d="M12.7735 20.8369H15.3512V8.37993H12.7735V20.8369Z" fill="#004685"/>
<path d="M25.4501 18.129C24.7617 18.5437 24.1223 18.7529 23.5473 18.7529C22.7137 18.7529 22.3364 18.3166 22.3364 17.347V10.737H24.964V8.39213H22.3364V4.5157L19.8104 5.85513V8.39213H17.63V10.737H19.8104V17.7681C19.8104 19.683 20.9569 20.9936 22.6693 21.0278C23.8311 21.0502 24.5314 20.7073 24.9558 20.4559L24.983 20.4388L25.6025 18.0365L25.4501 18.129Z" fill="#004685"/>
<path d="M27.5839 20.8369H30.1652V8.37993H27.5839V20.8369Z" fill="#004685"/>
<path d="M31.6688 6.19654C29.3133 2.89467 25.4023 0.925032 21.4233 0.925032C17.4452 0.925032 13.5333 2.89467 11.1824 6.19654L11.0609 6.36621H14.0267L14.0594 6.3312C16.0775 4.2682 18.7132 3.17835 21.4233 3.17835C24.1334 3.17835 26.7673 4.2682 28.79 6.3312L28.8226 6.36621H31.7867L31.6688 6.19654Z" fill="#EE1C25"/>
</svg>
