<svg width="27" height="27" viewBox="0 0 27 27" fill="none" xmlns="http://www.w3.org/2000/svg">
<mask id="path-1-inside-1_1671_1577" fill="white">
<path d="M14.5305 14.5306L24.5361 14.5306C24.7079 14.5439 24.8805 14.5215 25.0432 14.4649C25.2059 14.4083 25.3552 14.3187 25.4816 14.2017C25.6081 14.0846 25.7089 13.9427 25.7779 13.7849C25.8469 13.627 25.8825 13.4566 25.8825 13.2843C25.8825 13.112 25.8469 12.9416 25.7779 12.7838C25.7089 12.6259 25.6081 12.484 25.4816 12.367C25.3552 12.2499 25.2059 12.1603 25.0432 12.1037C24.8805 12.0471 24.7079 12.0247 24.5361 12.038L14.5305 12.038L14.5305 2.03247C14.5062 1.71858 14.3644 1.42541 14.1334 1.21155C13.9023 0.997694 13.5991 0.878895 13.2843 0.878895C12.9694 0.878894 12.6662 0.997694 12.4351 1.21155C12.2041 1.42541 12.0623 1.71858 12.038 2.03247L12.038 12.038L2.03242 12.038C1.70219 12.039 1.38576 12.1706 1.15225 12.4041C0.918744 12.6377 0.787126 12.9541 0.786143 13.2843C0.787126 13.6145 0.918744 13.931 1.15225 14.1645C1.38576 14.398 1.70219 14.5296 2.03242 14.5306L12.038 14.5306L12.038 24.5361C12.039 24.8664 12.1706 25.1828 12.4041 25.4163C12.6376 25.6498 12.954 25.7814 13.2843 25.7824C13.6145 25.7814 13.9309 25.6498 14.1644 25.4163C14.3979 25.1828 14.5295 24.8664 14.5305 24.5361V14.5306Z"/>
</mask>
<path d="M14.5305 14.5306L24.5361 14.5306C24.7079 14.5439 24.8805 14.5215 25.0432 14.4649C25.2059 14.4083 25.3552 14.3187 25.4816 14.2017C25.6081 14.0846 25.7089 13.9427 25.7779 13.7849C25.8469 13.627 25.8825 13.4566 25.8825 13.2843C25.8825 13.112 25.8469 12.9416 25.7779 12.7838C25.7089 12.6259 25.6081 12.484 25.4816 12.367C25.3552 12.2499 25.2059 12.1603 25.0432 12.1037C24.8805 12.0471 24.7079 12.0247 24.5361 12.038L14.5305 12.038L14.5305 2.03247C14.5062 1.71858 14.3644 1.42541 14.1334 1.21155C13.9023 0.997694 13.5991 0.878895 13.2843 0.878895C12.9694 0.878894 12.6662 0.997694 12.4351 1.21155C12.2041 1.42541 12.0623 1.71858 12.038 2.03247L12.038 12.038L2.03242 12.038C1.70219 12.039 1.38576 12.1706 1.15225 12.4041C0.918744 12.6377 0.787126 12.9541 0.786143 13.2843C0.787126 13.6145 0.918744 13.931 1.15225 14.1645C1.38576 14.398 1.70219 14.5296 2.03242 14.5306L12.038 14.5306L12.038 24.5361C12.039 24.8664 12.1706 25.1828 12.4041 25.4163C12.6376 25.6498 12.954 25.7814 13.2843 25.7824C13.6145 25.7814 13.9309 25.6498 14.1644 25.4163C14.3979 25.1828 14.5295 24.8664 14.5305 24.5361V14.5306Z" fill="black"/>
<path d="M14.5305 14.5306L14.5305 12.0306H12.0305L12.0305 14.5306L14.5305 14.5306ZM24.5361 14.5306L24.7289 12.038L24.6327 12.0306H24.5361L24.5361 14.5306ZM24.5361 12.038L24.5361 14.538H24.6327L24.7289 14.5306L24.5361 12.038ZM14.5305 12.038L12.0305 12.038L12.0305 14.538L14.5305 14.538L14.5305 12.038ZM14.5305 2.03247L17.0305 2.03247V1.93591L17.0231 1.83963L14.5305 2.03247ZM12.038 2.03247L9.54543 1.83963L9.53798 1.93591V2.03247L12.038 2.03247ZM12.038 12.038L12.038 14.538L14.538 14.538L14.538 12.038H12.038ZM2.03242 12.038L2.03242 9.53802L2.02498 9.53804L2.03242 12.038ZM0.786143 13.2843L-1.71385 13.2769L-1.71387 13.2843L-1.71385 13.2917L0.786143 13.2843ZM2.03242 14.5306L2.02498 17.0306L2.03242 17.0306L2.03242 14.5306ZM12.038 14.5306L14.538 14.5306V12.0306L12.038 12.0306L12.038 14.5306ZM12.038 24.5361L9.53797 24.5361L9.53799 24.5436L12.038 24.5361ZM13.2843 25.7824L13.2768 28.2824L13.2843 28.2824L13.2917 28.2824L13.2843 25.7824ZM14.5305 24.5361L17.0305 24.5436L17.0305 24.5361L14.5305 24.5361ZM14.5305 17.0306L24.5361 17.0306L24.5361 12.0306L14.5305 12.0306L14.5305 17.0306ZM24.3432 17.0231C24.8585 17.063 25.3765 16.9959 25.8646 16.8261L24.2218 12.1037C24.3845 12.0471 24.5572 12.0247 24.7289 12.038L24.3432 17.0231ZM25.8646 16.8261C26.3528 16.6563 26.8005 16.3874 27.1798 16.0363L23.7834 12.367C23.9098 12.2499 24.0591 12.1603 24.2218 12.1037L25.8646 16.8261ZM27.1798 16.0363C27.5591 15.6853 27.8618 15.2596 28.0687 14.786L23.4871 12.7838C23.5561 12.6259 23.657 12.484 23.7834 12.367L27.1798 16.0363ZM28.0687 14.786C28.2757 14.3124 28.3825 13.8011 28.3825 13.2843L23.3825 13.2843C23.3825 13.112 23.4181 12.9416 23.4871 12.7838L28.0687 14.786ZM28.3825 13.2843C28.3825 12.7675 28.2757 12.2562 28.0687 11.7826L23.4871 13.7849C23.4181 13.627 23.3825 13.4566 23.3825 13.2843L28.3825 13.2843ZM28.0687 11.7826C27.8618 11.3091 27.5591 10.8834 27.1798 10.5323L23.7834 14.2017C23.657 14.0846 23.5561 13.9427 23.4871 13.7849L28.0687 11.7826ZM27.1798 10.5323C26.8006 10.1812 26.3528 9.91233 25.8646 9.74251L24.2218 14.4649C24.0591 14.4083 23.9098 14.3187 23.7834 14.2017L27.1798 10.5323ZM25.8646 9.74251C25.3765 9.57269 24.8585 9.50562 24.3433 9.54548L24.7289 14.5306C24.5572 14.5439 24.3845 14.5215 24.2218 14.4649L25.8646 9.74251ZM24.5361 9.53804L14.5305 9.53803L14.5305 14.538L24.5361 14.538L24.5361 9.53804ZM17.0305 12.038L17.0305 2.03247L12.0305 2.03247L12.0305 12.038L17.0305 12.038ZM17.0231 1.83963C16.9502 0.897961 16.5247 0.0184552 15.8316 -0.623126L12.4351 3.04623C12.2041 2.83237 12.0623 2.5392 12.038 2.22531L17.0231 1.83963ZM15.8316 -0.623126C15.1384 -1.26471 14.2287 -1.62111 13.2843 -1.62111L13.2843 3.37889C12.9694 3.37889 12.6662 3.2601 12.4351 3.04623L15.8316 -0.623126ZM13.2843 -1.62111C12.3398 -1.62111 11.4301 -1.26471 10.7369 -0.623126L14.1334 3.04623C13.9023 3.2601 13.5991 3.37889 13.2843 3.37889L13.2843 -1.62111ZM10.7369 -0.623126C10.0438 0.0184552 9.61828 0.897961 9.54543 1.83963L14.5305 2.22531C14.5062 2.5392 14.3644 2.83237 14.1334 3.04623L10.7369 -0.623126ZM9.53798 2.03247L9.53798 12.038L14.538 12.038L14.538 2.03247L9.53798 2.03247ZM12.038 9.53803L2.03242 9.53803L2.03242 14.538L12.038 14.538L12.038 9.53803ZM2.02498 9.53804C1.03429 9.54099 0.0850185 9.93584 -0.615513 10.6364L2.92002 14.1719C2.68651 14.4054 2.37008 14.537 2.03986 14.538L2.02498 9.53804ZM-0.615513 10.6364C-1.31605 11.3369 -1.7109 12.2862 -1.71385 13.2769L3.28613 13.2917C3.28515 13.622 3.15353 13.9384 2.92002 14.1719L-0.615513 10.6364ZM-1.71385 13.2917C-1.7109 14.2824 -1.31604 15.2317 -0.615513 15.9322L2.92002 12.3967C3.15353 12.6302 3.28515 12.9466 3.28613 13.2769L-1.71385 13.2917ZM-0.615513 15.9322C0.0850141 16.6328 1.03429 17.0276 2.02498 17.0306L2.03986 12.0306C2.37009 12.0316 2.68651 12.1632 2.92002 12.3967L-0.615513 15.9322ZM2.03242 17.0306L12.038 17.0306L12.038 12.0306L2.03242 12.0306L2.03242 17.0306ZM9.53798 14.5306L9.53798 24.5361H14.538L14.538 14.5306L9.53798 14.5306ZM9.53799 24.5436C9.54094 25.5343 9.9358 26.4836 10.6363 27.1841L14.1719 23.6485C14.4054 23.8821 14.537 24.1985 14.538 24.5287L9.53799 24.5436ZM10.6363 27.1841C11.3369 27.8846 12.2861 28.2795 13.2768 28.2824L13.2917 23.2824C13.6219 23.2834 13.9383 23.415 14.1719 23.6485L10.6363 27.1841ZM13.2917 28.2824C14.2824 28.2795 15.2317 27.8846 15.9322 27.1841L12.3967 23.6485C12.6302 23.415 12.9466 23.2834 13.2768 23.2824L13.2917 28.2824ZM15.9322 27.1841C16.6327 26.4836 17.0276 25.5343 17.0305 24.5436L12.0305 24.5287C12.0315 24.1985 12.1631 23.8821 12.3967 23.6485L15.9322 27.1841ZM17.0305 24.5361L17.0305 14.5306L12.0305 14.5306L12.0305 24.5361L17.0305 24.5361Z" fill="#FCFCFC" mask="url(#path-1-inside-1_1671_1577)"/>
</svg>
