<svg width="22" height="22" viewBox="0 0 22 22" fill="none" xmlns="http://www.w3.org/2000/svg">
<path d="M14 3V2C14 1.46957 13.7893 0.960859 13.4142 0.585786C13.0391 0.210714 12.5304 0 12 0H2C1.46957 0 0.960859 0.210714 0.585786 0.585786C0.210714 0.960859 0 1.46957 0 2V20C0 20.5304 0.210714 21.0391 0.585786 21.4142C0.960859 21.7893 1.46957 22 2 22H12C12.5304 22 13.0391 21.7893 13.4142 21.4142C13.7893 21.0391 14 20.5304 14 20V19" stroke="#FD3C4A" stroke-width="2" stroke-linecap="round" stroke-linejoin="round"/>
<path d="M6 11H21.83" stroke="#FD3C4A" stroke-width="2" stroke-linecap="round" stroke-linejoin="round"/>
<path d="M18.5901 6.75977L21.4101 9.58977C21.7826 9.96449 21.9917 10.4714 21.9917 10.9998C21.9917 11.5281 21.7826 12.035 21.4101 12.4098L18.5901 15.2398" stroke="#FD3C4A" stroke-width="2" stroke-linecap="round" stroke-linejoin="round"/>
</svg>
