<svg width="28" height="22" viewBox="0 0 28 22" fill="none" xmlns="http://www.w3.org/2000/svg">
<path d="M18.1301 12.9298V13.9298C18.1301 14.5865 18.0007 15.2366 17.7495 15.8433C17.4982 16.4499 17.1299 17.0011 16.6656 17.4654C16.2013 17.9297 15.6501 18.298 15.0435 18.5492C14.4369 18.8005 13.7867 18.9298 13.1301 18.9298H9.87007C9.85465 19.4767 9.68997 20.009 9.39386 20.469C9.09775 20.929 8.68147 21.2993 8.19007 21.5398C7.78024 21.7446 7.32822 21.8508 6.87007 21.8498C6.19234 21.8539 5.53322 21.6283 5.00007 21.2098L1.29007 18.2998C0.928742 18.0194 0.636313 17.6601 0.435145 17.2493C0.233976 16.8386 0.129395 16.3872 0.129395 15.9298C0.129395 15.4725 0.233976 15.0211 0.435145 14.6104C0.636313 14.1996 0.928742 13.8403 1.29007 13.5598L5.00007 10.6498C5.44707 10.2931 5.98673 10.0716 6.55545 10.0113C7.12417 9.95108 7.69826 10.0547 8.21007 10.3098C8.8916 10.6358 9.41647 11.2182 9.67007 11.9298H17.1001C17.2339 11.9258 17.3672 11.9487 17.492 11.9972C17.6168 12.0456 17.7306 12.1187 17.8267 12.2119C17.9227 12.3052 17.9991 12.4168 18.0512 12.5401C18.1033 12.6634 18.1301 12.796 18.1301 12.9298Z" fill="#C6C6C6"/>
<path d="M27.8701 6.06995C27.8702 6.52728 27.7657 6.97857 27.5647 7.38934C27.3636 7.8001 27.0713 8.15946 26.7101 8.43995L23.0001 11.35C22.4595 11.77 21.7947 11.9986 21.1101 12C20.652 12.0009 20.2 11.8947 19.7901 11.69C19.1086 11.364 18.5837 10.7816 18.3301 10.07H10.8701C10.6049 10.07 10.3505 9.9646 10.163 9.77706C9.97547 9.58952 9.87012 9.33517 9.87012 9.06995V8.06995C9.87012 6.74387 10.3969 5.4721 11.3346 4.53442C12.2723 3.59674 13.544 3.06995 14.8701 3.06995H18.1301C18.1423 2.5109 18.3105 1.96638 18.6157 1.49784C18.9209 1.02929 19.351 0.655373 19.8574 0.418276C20.3638 0.18118 20.9264 0.0903436 21.4817 0.156018C22.0371 0.221693 22.563 0.441264 23.0001 0.789954L26.7101 3.69995C27.0713 3.98045 27.3636 4.33981 27.5647 4.75057C27.7657 5.16134 27.8702 5.61263 27.8701 6.06995Z" fill="#C6C6C6"/>
</svg>
