<svg width="24" height="18" viewBox="0 0 24 18" fill="none" xmlns="http://www.w3.org/2000/svg">
<path d="M23 1.5H11C10.8674 1.5 10.7402 1.44732 10.6464 1.35355C10.5527 1.25978 10.5 1.13261 10.5 1C10.5 0.867392 10.5527 0.740215 10.6464 0.646447C10.7402 0.552678 10.8674 0.5 11 0.5H23C23.1326 0.5 23.2598 0.552679 23.3536 0.646447C23.4473 0.740214 23.5 0.867391 23.5 1C23.5 1.13261 23.4473 1.25979 23.3536 1.35355C23.2598 1.44732 23.1326 1.5 23 1.5Z" fill="black" stroke="#212325"/>
<path d="M17 10H11C10.7348 10 10.4804 9.89464 10.2929 9.70711C10.1054 9.51957 10 9.26522 10 9C10 8.73478 10.1054 8.48043 10.2929 8.29289C10.4804 8.10536 10.7348 8 11 8H17C17.2652 8 17.5196 8.10536 17.7071 8.29289C17.8946 8.48043 18 8.73478 18 9C18 9.26522 17.8946 9.51957 17.7071 9.70711C17.5196 9.89464 17.2652 10 17 10Z" fill="black"/>
<path d="M13 18H11C10.7348 18 10.4804 17.8946 10.2929 17.7071C10.1054 17.5196 10 17.2652 10 17C10 16.7348 10.1054 16.4804 10.2929 16.2929C10.4804 16.1054 10.7348 16 11 16H13C13.2652 16 13.5196 16.1054 13.7071 16.2929C13.8946 16.4804 14 16.7348 14 17C14 17.2652 13.8946 17.5196 13.7071 17.7071C13.5196 17.8946 13.2652 18 13 18Z" fill="black"/>
<path d="M6.99994 0C6.73472 0 6.48037 0.105357 6.29283 0.292893C6.1053 0.48043 5.99994 0.734784 5.99994 1V15.45L1.70994 11.15C1.52164 10.9617 1.26624 10.8559 0.999941 10.8559C0.733639 10.8559 0.478245 10.9617 0.289941 11.15C0.101637 11.3383 -0.00415039 11.5937 -0.00415039 11.86C-0.00415039 12.1263 0.101637 12.3817 0.289941 12.57L4.87994 17.16C5.4485 17.7081 6.21026 18.01 6.99994 18C7.26516 18 7.51951 17.8946 7.70705 17.7071C7.89458 17.5196 7.99994 17.2652 7.99994 17V1C7.99994 0.734784 7.89458 0.48043 7.70705 0.292893C7.51951 0.105357 7.26516 0 6.99994 0Z" fill="black"/>
</svg>
