<svg width="29" height="24" viewBox="0 0 29 24" fill="none" xmlns="http://www.w3.org/2000/svg">
<path d="M14.5 18C17.2614 18 19.5 15.7614 19.5 13C19.5 10.2386 17.2614 8 14.5 8C11.7386 8 9.5 10.2386 9.5 13C9.5 15.7614 11.7386 18 14.5 18Z" fill="#7F3DFF"/>
<path d="M23.5 4H22.74C22.5536 4.0013 22.3706 3.95049 22.2116 3.85331C22.0526 3.75612 21.9239 3.61644 21.84 3.45L21.5 2.76C21.0844 1.93053 20.4461 1.23307 19.6567 0.745635C18.8673 0.258203 17.9578 3.11334e-05 17.03 0H11.97C11.0422 3.11334e-05 10.1327 0.258203 9.34331 0.745635C8.55388 1.23307 7.91565 1.93053 7.5 2.76L7.16 3.45C7.07614 3.61644 6.94743 3.75612 6.78841 3.85331C6.62938 3.95049 6.44636 4.0013 6.26 4H5.5C4.17392 4 2.90215 4.52678 1.96447 5.46447C1.02678 6.40215 0.5 7.67392 0.5 9V19C0.5 20.3261 1.02678 21.5979 1.96447 22.5355C2.90215 23.4732 4.17392 24 5.5 24H23.5C24.8261 24 26.0979 23.4732 27.0355 22.5355C27.9732 21.5979 28.5 20.3261 28.5 19V9C28.5 7.67392 27.9732 6.40215 27.0355 5.46447C26.0979 4.52678 24.8261 4 23.5 4ZM14.5 20C13.1155 20 11.7622 19.5895 10.611 18.8203C9.45986 18.0511 8.56266 16.9579 8.03284 15.6788C7.50303 14.3997 7.36441 12.9922 7.6345 11.6344C7.9046 10.2765 8.57129 9.02922 9.55025 8.05025C10.5292 7.07129 11.7765 6.4046 13.1344 6.1345C14.4922 5.86441 15.8997 6.00303 17.1788 6.53284C18.4579 7.06266 19.5511 7.95986 20.3203 9.11101C21.0895 10.2622 21.5 11.6155 21.5 13C21.5 14.8565 20.7625 16.637 19.4497 17.9497C18.137 19.2625 16.3565 20 14.5 20ZM23.5 10C23.3022 10 23.1089 9.94135 22.9444 9.83147C22.78 9.72159 22.6518 9.56541 22.5761 9.38268C22.5004 9.19996 22.4806 8.99889 22.5192 8.80491C22.5578 8.61093 22.653 8.43275 22.7929 8.29289C22.9327 8.15304 23.1109 8.0578 23.3049 8.01921C23.4989 7.98063 23.7 8.00043 23.8827 8.07612C24.0654 8.15181 24.2216 8.27998 24.3315 8.44443C24.4414 8.60888 24.5 8.80222 24.5 9C24.5 9.26522 24.3946 9.51957 24.2071 9.70711C24.0196 9.89464 23.7652 10 23.5 10Z" fill="#7F3DFF"/>
</svg>
