<svg width="25" height="28" viewBox="0 0 25 28" fill="none" xmlns="http://www.w3.org/2000/svg">
<path d="M24.5 10V23C24.5 24.3261 23.9732 25.5979 23.0355 26.5355C22.0979 27.4732 20.8261 28 19.5 28H5.5C4.17392 28 2.90215 27.4732 1.96447 26.5355C1.02678 25.5979 0.5 24.3261 0.5 23V5C0.5 3.67392 1.02678 2.40215 1.96447 1.46447C2.90215 0.526784 4.17392 0 5.5 0H14.5V7C14.5 7.79565 14.8161 8.55871 15.3787 9.12132C15.9413 9.68393 16.7044 10 17.5 10H24.5Z" fill="#7F3DFF"/>
<path d="M24.41 7.99997H17.5C17.2348 7.99997 16.9804 7.89461 16.7929 7.70707C16.6054 7.51954 16.5 7.26518 16.5 6.99997V0.0899658C17.6834 0.291645 18.7742 0.858033 19.62 1.70997L22.79 4.87997C23.6403 5.72693 24.2064 6.8172 24.41 7.99997Z" fill="#7F3DFF"/>
</svg>
