<svg width="29" height="24" viewBox="0 0 29 24" fill="none" xmlns="http://www.w3.org/2000/svg">
<path d="M21.5 12.2801C20.9375 11.7183 20.175 11.4027 19.38 11.4027C18.585 11.4027 17.8225 11.7183 17.26 12.2801L5.5 24.0001C7.19 24.0001 12.28 24.0001 23.5 24.0001C24.5072 23.9971 25.49 23.69 26.3198 23.119C27.1495 22.548 27.7874 21.7397 28.15 20.8001C28.15 20.6801 28.24 20.5501 28.28 20.4201L28.4 20.0001C28.4338 19.8384 28.4572 19.6747 28.47 19.5101C28.4753 19.4669 28.4753 19.4232 28.47 19.3801C28.4747 19.3637 28.4747 19.3464 28.47 19.3301L21.5 12.2801Z" fill="#7F3DFF"/>
<path d="M28.4999 4.52005C28.3802 3.27884 27.801 2.12714 26.876 1.29092C25.951 0.454691 24.7468 -0.00570471 23.4999 5.33655e-05H5.49988C4.25292 -0.00570471 3.04881 0.454691 2.12378 1.29092C1.19875 2.12714 0.619575 3.27884 0.499879 4.52005C0.487671 4.67982 0.487671 4.84029 0.499879 5.00005V19.0001C0.489928 19.1699 0.489928 19.3402 0.499879 19.5101C0.523553 19.6818 0.55694 19.8521 0.599879 20.0201C0.957308 21.1061 1.57532 22.088 2.39988 22.8801C2.66151 23.0921 2.94673 23.2733 3.24988 23.4201L15.8199 10.8601C16.2843 10.3944 16.8361 10.025 17.4435 9.77293C18.051 9.52086 18.7022 9.39112 19.3599 9.39112C20.0176 9.39112 20.6688 9.52086 21.2762 9.77293C21.8837 10.025 22.4354 10.3944 22.8999 10.8601L28.4999 16.4601V5.00005C28.5121 4.84029 28.5121 4.67982 28.4999 4.52005ZM6.49988 8.00005C6.10432 8.00005 5.71764 7.88276 5.38874 7.66299C5.05984 7.44323 4.80349 7.13087 4.65212 6.76542C4.50074 6.39997 4.46114 5.99783 4.53831 5.60987C4.61548 5.22191 4.80596 4.86555 5.08567 4.58584C5.36537 4.30614 5.72174 4.11565 6.1097 4.03848C6.49766 3.96131 6.89979 4.00092 7.26525 4.15229C7.6307 4.30367 7.94306 4.56001 8.16282 4.88891C8.38258 5.21781 8.49988 5.60449 8.49988 6.00005C8.49988 6.53049 8.28917 7.03919 7.91409 7.41427C7.53902 7.78934 7.03031 8.00005 6.49988 8.00005Z" fill="#7F3DFF"/>
</svg>
