<svg width="10" height="20" viewBox="0 0 10 20" fill="none" xmlns="http://www.w3.org/2000/svg">
<path d="M1.60765 18.9903L1.59988 18.9901L1.5921 18.99C1.52595 18.9898 1.4605 18.9764 1.39957 18.9506C1.33863 18.9249 1.28341 18.8873 1.23711 18.84L1.23463 18.8375C1.1415 18.7439 1.08923 18.6171 1.08923 18.485C1.08923 18.3532 1.14129 18.2267 1.23406 18.1331C1.23425 18.1329 1.23444 18.1327 1.23463 18.1325L6.89358 12.4736L6.8938 12.4734C7.54924 11.8171 7.91739 10.9275 7.91739 10C7.91739 9.07253 7.54924 8.18296 6.8938 7.5267L6.89358 7.52648L1.24958 1.88249C1.17434 1.78871 1.13529 1.67078 1.13994 1.55028C1.1448 1.42444 1.19697 1.30508 1.28602 1.21603C1.37506 1.12698 1.49443 1.07481 1.62027 1.06995C1.74114 1.06528 1.85942 1.10459 1.95333 1.18028L7.64692 6.81404C7.64716 6.81428 7.6474 6.81452 7.64764 6.81476C8.06637 7.23262 8.3986 7.72894 8.62533 8.27533C8.85219 8.82204 8.96896 9.40813 8.96896 10C8.96896 10.5919 8.85219 11.178 8.62533 11.7247C8.39847 12.2714 8.06599 12.768 7.64692 13.186L7.64679 13.1862L1.98679 18.8362L1.98676 18.8361L1.98265 18.8403C1.93401 18.8901 1.87554 18.9291 1.81097 18.9549C1.7464 18.9807 1.67715 18.9928 1.60765 18.9903Z" fill="black" stroke="#7F3DFF"/>
</svg>
