<svg width="28" height="22" viewBox="0 0 28 22" fill="none" xmlns="http://www.w3.org/2000/svg">
<path d="M18.13 12.9298V13.9298C18.13 14.5865 18.0006 15.2366 17.7493 15.8433C17.4981 16.4499 17.1298 17.0011 16.6655 17.4654C16.2012 17.9297 15.65 18.298 15.0434 18.5492C14.4367 18.8005 13.7866 18.9298 13.13 18.9298H9.86995C9.85453 19.4767 9.68985 20.009 9.39374 20.469C9.09762 20.929 8.68135 21.2993 8.18995 21.5398C7.78012 21.7446 7.3281 21.8508 6.86995 21.8498C6.19222 21.8539 5.5331 21.6283 4.99995 21.2098L1.28995 18.2998C0.92862 18.0194 0.636191 17.6601 0.435023 17.2493C0.233854 16.8386 0.129272 16.3872 0.129272 15.9298C0.129272 15.4725 0.233854 15.0211 0.435023 14.6104C0.636191 14.1996 0.92862 13.8403 1.28995 13.5598L4.99995 10.6498C5.44695 10.2931 5.9866 10.0716 6.55533 10.0113C7.12405 9.95108 7.69814 10.0547 8.20995 10.3098C8.89148 10.6358 9.41635 11.2182 9.66995 11.9298H17.1C17.2338 11.9258 17.367 11.9487 17.4919 11.9972C17.6167 12.0456 17.7305 12.1187 17.8265 12.2119C17.9226 12.3052 17.9989 12.4168 18.0511 12.5401C18.1032 12.6634 18.13 12.796 18.13 12.9298Z" fill="#7F3DFF"/>
<path d="M27.87 6.06995C27.8701 6.52728 27.7656 6.97857 27.5645 7.38934C27.3635 7.8001 27.0712 8.15946 26.71 8.43995L23 11.35C22.4594 11.77 21.7946 11.9986 21.11 12C20.6519 12.0009 20.1998 11.8947 19.79 11.69C19.1085 11.364 18.5836 10.7816 18.33 10.07H10.87C10.6048 10.07 10.3504 9.9646 10.1629 9.77706C9.97535 9.58952 9.87 9.33517 9.87 9.06995V8.06995C9.87 6.74387 10.3968 5.4721 11.3345 4.53442C12.2721 3.59674 13.5439 3.06995 14.87 3.06995H18.13C18.1422 2.5109 18.3103 1.96638 18.6156 1.49784C18.9208 1.02929 19.3508 0.655373 19.8573 0.418276C20.3637 0.18118 20.9263 0.0903436 21.4816 0.156018C22.0369 0.221693 22.5628 0.441264 23 0.789954L26.71 3.69995C27.0712 3.98045 27.3635 4.33981 27.5645 4.75057C27.7656 5.16134 27.8701 5.61263 27.87 6.06995Z" fill="#7F3DFF"/>
</svg>
