<svg width="15" height="19" viewBox="0 0 15 19" fill="none" xmlns="http://www.w3.org/2000/svg">
<path d="M12.8025 7.45514C12.2912 6.93737 11.7046 6.49992 11.0625 6.15764C10.8946 6.06369 10.7218 5.97857 10.545 5.90264C10.1885 5.74141 9.81986 5.6085 9.4425 5.50514L9.0825 5.42264C8.82 5.37014 8.565 5.33264 8.3325 5.30264H7.98H7.8C7.60779 5.28779 7.41471 5.28779 7.2225 5.30264H7.0575H6.78H6.675C6.42288 5.32428 6.17238 5.36186 5.925 5.41514L5.5725 5.49764C5.19843 5.60062 4.83244 5.73097 4.4775 5.88764C4.2975 5.97014 4.1175 6.05264 3.9525 6.14264C2.75798 6.78392 1.75963 7.73699 1.06365 8.90049C0.367669 10.064 8.46377e-05 11.3944 0 12.7501V15.0001C0 15.9947 0.395088 16.9485 1.09835 17.6518C1.80161 18.3551 2.75544 18.7501 3.75 18.7501H11.25C12.2446 18.7501 13.1984 18.3551 13.9017 17.6518C14.6049 16.9485 15 15.9947 15 15.0001V12.7501C15.0046 11.7657 14.8126 10.7903 14.4352 9.88103C14.0579 8.97178 13.5028 8.14703 12.8025 7.45514ZM7.125 11.2501H7.875C8.37228 11.2004 8.86895 11.3503 9.25574 11.6667C9.64254 11.9832 9.88777 12.4404 9.9375 12.9376C9.98723 13.4349 9.83738 13.9316 9.52091 14.3184C9.20444 14.7052 8.74728 14.9504 8.25 15.0001C8.25 15.199 8.17098 15.3898 8.03033 15.5305C7.88968 15.6711 7.69891 15.7501 7.5 15.7501C7.30109 15.7501 7.11032 15.6711 6.96967 15.5305C6.82902 15.3898 6.75 15.199 6.75 15.0001H6C5.80109 15.0001 5.61032 14.9211 5.46967 14.7805C5.32902 14.6398 5.25 14.449 5.25 14.2501C5.25 14.0512 5.32902 13.8605 5.46967 13.7198C5.61032 13.5792 5.80109 13.5001 6 13.5001H7.875C7.97446 13.5001 8.06984 13.4606 8.14017 13.3903C8.21049 13.32 8.25 13.2246 8.25 13.1251C8.25 13.0257 8.21049 12.9303 8.14017 12.86C8.06984 12.7896 7.97446 12.7501 7.875 12.7501H7.125C6.66002 12.7506 6.21145 12.5783 5.86637 12.2666C5.5213 11.955 5.30434 11.5262 5.25761 11.0636C5.21088 10.6009 5.33771 10.1375 5.61349 9.76308C5.88927 9.38871 6.29432 9.13017 6.75 9.03764V9.00014C6.75 8.80123 6.82902 8.61046 6.96967 8.46981C7.11032 8.32916 7.30109 8.25014 7.5 8.25014C7.69891 8.25014 7.88968 8.32916 8.03033 8.46981C8.17098 8.61046 8.25 8.80123 8.25 9.00014H9C9.19891 9.00014 9.38968 9.07915 9.53033 9.21981C9.67098 9.36046 9.75 9.55123 9.75 9.75014C9.75 9.94905 9.67098 10.1398 9.53033 10.2805C9.38968 10.4211 9.19891 10.5001 9 10.5001H7.125C7.02554 10.5001 6.93016 10.5396 6.85983 10.61C6.78951 10.6803 6.75 10.7757 6.75 10.8751C6.75 10.9746 6.78951 11.07 6.85983 11.1403C6.93016 11.2106 7.02554 11.2501 7.125 11.2501Z" fill="#00A86B"/>
<path d="M11.595 2.70753L11.3025 4.59753L11.16 4.50003C10.7432 4.31063 10.3118 4.15512 9.87 4.03503C9.09601 3.83601 8.29911 3.74018 7.5 3.75003C6.69974 3.75263 5.90316 3.8585 5.13 4.06503C4.69376 4.18728 4.26752 4.34274 3.855 4.53003L3.6975 4.60503L3.405 2.70753C3.34486 2.31539 3.38947 1.91432 3.53432 1.54499C3.67916 1.17565 3.91908 0.851172 4.22976 0.604457C4.54044 0.357741 4.91083 0.197556 5.30338 0.140142C5.69593 0.0827285 6.09668 0.130127 6.465 0.277532L7.215 0.577533C7.39319 0.648501 7.59181 0.648501 7.77 0.577533L8.52 0.277532C8.88832 0.130127 9.28907 0.0827285 9.68162 0.140142C10.0742 0.197556 10.4446 0.357741 10.7552 0.604457C11.0659 0.851172 11.3058 1.17565 11.4507 1.54499C11.5955 1.91432 11.6401 2.31539 11.58 2.70753H11.595Z" fill="#00A86B"/>
</svg>
