<svg width="22" height="24" viewBox="0 0 22 24" fill="none" xmlns="http://www.w3.org/2000/svg">
<g clip-path="url(#clip0_1062_5603)">
<path d="M18.0862 1.8682C16.9788 0.606054 14.9771 0.0649414 12.4164 0.0649414H4.98432C4.73096 0.0649508 4.48591 0.155342 4.29323 0.319864C4.10055 0.484385 3.97287 0.712245 3.93317 0.962478L0.838597 20.589C0.777087 20.976 1.07677 21.3265 1.46903 21.3265H6.05733L7.20964 14.0175L7.17388 14.2464C7.25597 13.7298 7.69783 13.3487 8.22106 13.3487H10.4014C14.6847 13.3487 18.0386 11.6089 19.0183 6.57617C19.0474 6.42733 19.0726 6.28245 19.0943 6.14092C18.9707 6.07543 18.9707 6.07543 19.0943 6.14092C19.3861 4.28076 19.0923 3.01456 18.0862 1.8682Z" fill="#27346A"/>
<path d="M8.9653 5.47082C9.09074 5.41109 9.22793 5.38014 9.36686 5.38023H15.1935C15.8834 5.38023 16.527 5.42513 17.1151 5.51978C17.2796 5.54601 17.4433 5.57734 17.6059 5.61371C17.8364 5.66457 18.0643 5.72682 18.2886 5.80023C18.5777 5.89678 18.8469 6.00923 19.0944 6.14091C19.3861 4.28004 19.0924 3.01456 18.0862 1.8682C16.9782 0.606054 14.9771 0.0649414 12.4164 0.0649414H4.98368C4.46037 0.0649414 4.01518 0.445921 3.93317 0.962478L0.838597 20.5883C0.777087 20.9759 1.07677 21.3259 1.4684 21.3259H6.05733L8.44803 6.16539C8.47154 6.01638 8.5309 5.8753 8.621 5.75431C8.71111 5.63332 8.82927 5.53603 8.9653 5.47082Z" fill="#27346A"/>
<path d="M19.0183 6.57588C18.0385 11.6079 14.6847 13.3484 10.4014 13.3484H8.2204C7.69716 13.3484 7.25523 13.7295 7.17393 14.2461L5.74037 23.3339C5.68681 23.6726 5.94874 23.9795 6.29142 23.9795H10.1592C10.3808 23.9795 10.5951 23.9004 10.7635 23.7564C10.932 23.6125 11.0435 23.4132 11.0781 23.1944L11.1158 22.9973L11.8448 18.3772L11.8918 18.1219C11.9264 17.903 12.0379 17.7038 12.2064 17.5598C12.3748 17.4159 12.589 17.3368 12.8106 17.3367H13.3895C17.1362 17.3367 20.07 15.8145 20.9274 11.4122C21.2852 9.57247 21.1001 8.03647 20.1534 6.95758C19.8663 6.6308 19.5097 6.36092 19.0943 6.14062C19.0718 6.28288 19.0474 6.42704 19.0183 6.57588Z" fill="#2790C3"/>
<path d="M18.069 5.73235C17.9163 5.68774 17.7621 5.64825 17.6067 5.61394C17.444 5.57816 17.2803 5.54705 17.1158 5.52064C16.5271 5.42535 15.884 5.38037 15.1934 5.38037H9.36754C9.2285 5.38006 9.09121 5.41128 8.96598 5.47168C8.82979 5.5367 8.7115 5.63392 8.62135 5.75495C8.53121 5.87598 8.47192 6.01715 8.44863 6.16625L7.21032 14.0177L7.17456 14.2466C7.25602 13.73 7.69787 13.3489 8.22118 13.3489H10.4022C14.6854 13.3489 18.0392 11.6092 19.019 6.5764C19.0481 6.42755 19.0726 6.28331 19.0951 6.14114C18.847 6.01017 18.5785 5.89701 18.2893 5.80109C18.2163 5.7769 18.1429 5.75398 18.0691 5.73235" fill="#1F264F"/>
</g>
<defs>
<clipPath id="clip0_1062_5603">
<rect width="20.3444" height="24" fill="white" transform="translate(0.827759)"/>
</clipPath>
</defs>
</svg>
