<svg width="24" height="16" viewBox="0 0 24 16" fill="none" xmlns="http://www.w3.org/2000/svg">
<path d="M7.38056 12.6293L7.33703 12.6711C6.65338 13.3605 5.86225 13.7248 5.04731 13.7248C3.34533 13.7248 2.11067 12.461 2.11067 10.7178C2.11067 8.97732 3.34533 7.71151 5.04731 7.71151C5.86225 7.71151 6.65338 8.07779 7.33703 8.76994L7.38056 8.81101L8.47508 7.50077L8.44583 7.46575C7.53566 6.40126 6.44318 5.8835 5.10037 5.8835C3.75416 5.8835 2.52155 6.33259 1.6345 7.14122C0.668547 8.01786 0.1604 9.25405 0.1604 10.7178C0.1604 12.1816 0.668547 13.4204 1.6345 14.2971C2.52155 15.1104 3.75416 15.5562 5.10037 15.5562C6.44318 15.5562 7.53566 15.0377 8.44583 13.9725L8.47508 13.9402L7.38056 12.6293Z" fill="#004685"/>
<path d="M9.58008 15.3774H11.5133V6.0347H9.58008V15.3774Z" fill="#004685"/>
<path d="M19.0875 13.3466C18.5712 13.6577 18.0916 13.8146 17.6604 13.8146C17.0352 13.8146 16.7522 13.4873 16.7522 12.7602V7.80264H18.7229V6.04397H16.7522V3.13665L14.8577 4.14122V6.04397H13.2224V7.80264H14.8577V13.0759C14.8577 14.5121 15.7176 15.4951 17.0019 15.5207C17.8733 15.5375 18.3984 15.2803 18.7168 15.0918L18.7372 15.079L19.2018 13.2773L19.0875 13.3466Z" fill="#004685"/>
<path d="M20.6879 15.3774H22.6239V6.0347H20.6879V15.3774Z" fill="#004685"/>
<path d="M23.7515 4.39716C21.9849 1.92075 19.0516 0.44353 16.0674 0.44353C13.0838 0.44353 10.1499 1.92075 8.38669 4.39716L8.29553 4.52441H10.5199L10.5444 4.49816C12.058 2.95091 14.0348 2.13352 16.0674 2.13352C18.1 2.13352 20.0754 2.95091 21.5924 4.49816L21.6168 4.52441H23.8399L23.7515 4.39716Z" fill="#EE1C25"/>
</svg>
