<svg width="25" height="28" viewBox="0 0 25 28" fill="none" xmlns="http://www.w3.org/2000/svg">
<path d="M19.1975 12H5.19751C3.87143 12 2.59966 12.5268 1.66198 13.4645C0.724294 14.4021 0.19751 15.6739 0.19751 17V23C0.19751 24.3261 0.724294 25.5979 1.66198 26.5355C2.59966 27.4732 3.87143 28 5.19751 28H19.1975C20.5236 28 21.7954 27.4732 22.733 26.5355C23.6707 25.5979 24.1975 24.3261 24.1975 23V17C24.1975 15.6739 23.6707 14.4021 22.733 13.4645C21.7954 12.5268 20.5236 12 19.1975 12ZM12.1975 24C11.4064 24 10.633 23.7654 9.97523 23.3259C9.31743 22.8864 8.80474 22.2616 8.50199 21.5307C8.19924 20.7998 8.12003 19.9956 8.27437 19.2196C8.42871 18.4437 8.80967 17.731 9.36908 17.1716C9.92849 16.6122 10.6412 16.2312 11.4171 16.0769C12.1931 15.9225 12.9973 16.0017 13.7282 16.3045C14.4591 16.6072 15.0839 17.1199 15.5234 17.7777C15.9629 18.4355 16.1975 19.2089 16.1975 20C16.1975 21.0609 15.7761 22.0783 15.0259 22.8284C14.2758 23.5786 13.2584 24 12.1975 24Z" fill="#FD3C4A"/>
<path d="M12.1975 22C13.3021 22 14.1975 21.1046 14.1975 20C14.1975 18.8954 13.3021 18 12.1975 18C11.0929 18 10.1975 18.8954 10.1975 20C10.1975 21.1046 11.0929 22 12.1975 22Z" fill="#FD3C4A"/>
<path d="M12.9076 0.29C12.8146 0.196272 12.704 0.121877 12.5822 0.0711086C12.4603 0.0203399 12.3296 -0.00579834 12.1976 -0.00579834C12.0656 -0.00579834 11.9349 0.0203399 11.813 0.0711086C11.6912 0.121877 11.5806 0.196272 11.4876 0.29L7.2476 4.54C7.05399 4.72698 6.94259 4.98321 6.9379 5.25232C6.93321 5.52144 7.03562 5.78139 7.2226 5.975C7.40957 6.16861 7.6658 6.28001 7.93492 6.2847C8.20403 6.28939 8.46399 6.18698 8.6576 6L11.1976 3.41V9C11.1976 9.26522 11.303 9.51957 11.4905 9.70711C11.678 9.89464 11.9324 10 12.1976 10C12.4628 10 12.7172 9.89464 12.9047 9.70711C13.0922 9.51957 13.1976 9.26522 13.1976 9V3.41L15.7376 6C15.9239 6.18474 16.1753 6.2889 16.4376 6.29C16.5775 6.29761 16.7175 6.27573 16.8484 6.22577C16.9793 6.17581 17.0983 6.09889 17.1976 6C17.3838 5.81264 17.4884 5.55919 17.4884 5.295C17.4884 5.03081 17.3838 4.77736 17.1976 4.59L12.9076 0.29Z" fill="#FD3C4A"/>
</svg>
