<svg width="30" height="30" viewBox="0 0 30 30" fill="none" xmlns="http://www.w3.org/2000/svg">
<path d="M26.2501 20H3.7501H3.2251L4.2251 25C4.51326 26.4117 5.28032 27.6805 6.39647 28.5916C7.51261 29.5028 8.90928 30.0003 10.3501 30H19.6501C21.0909 30.0003 22.4876 29.5028 23.6037 28.5916C24.7199 27.6805 25.4869 26.4117 25.7751 25L26.7751 20H26.2501ZM13.7501 26.25C13.7501 26.5815 13.6184 26.8995 13.384 27.1339C13.1496 27.3683 12.8316 27.5 12.5001 27.5C12.1686 27.5 11.8506 27.3683 11.6162 27.1339C11.3818 26.8995 11.2501 26.5815 11.2501 26.25V23.75C11.2501 23.4185 11.3818 23.1005 11.6162 22.8661C11.8506 22.6317 12.1686 22.5 12.5001 22.5C12.8316 22.5 13.1496 22.6317 13.384 22.8661C13.6184 23.1005 13.7501 23.4185 13.7501 23.75V26.25ZM18.7501 26.25C18.7501 26.5815 18.6184 26.8995 18.384 27.1339C18.1496 27.3683 17.8316 27.5 17.5001 27.5C17.1686 27.5 16.8506 27.3683 16.6162 27.1339C16.3818 26.8995 16.2501 26.5815 16.2501 26.25V23.75C16.2501 23.4185 16.3818 23.1005 16.6162 22.8661C16.8506 22.6317 17.1686 22.5 17.5001 22.5C17.8316 22.5 18.1496 22.6317 18.384 22.8661C18.6184 23.1005 18.7501 23.4185 18.7501 23.75V26.25Z" fill="#FCAC12"/>
<path d="M26.25 7.5H23.75V6.25C23.75 5.42924 23.5883 4.61651 23.2742 3.85823C22.9602 3.09994 22.4998 2.41095 21.9194 1.83058C21.3391 1.25022 20.6501 0.789845 19.8918 0.475753C19.1335 0.161661 18.3208 0 17.5 0H12.5C10.8424 0 9.25268 0.65848 8.08058 1.83058C6.90848 3.00269 6.25 4.5924 6.25 6.25V7.5H3.75C2.75544 7.5 1.80161 7.89509 1.09835 8.59835C0.395088 9.30161 0 10.2554 0 11.25V13.75C0 14.7446 0.395088 15.6984 1.09835 16.4017C1.80161 17.1049 2.75544 17.5 3.75 17.5H26.25C27.2446 17.5 28.1984 17.1049 28.9017 16.4017C29.6049 15.6984 30 14.7446 30 13.75V11.25C30 10.2554 29.6049 9.30161 28.9017 8.59835C28.1984 7.89509 27.2446 7.5 26.25 7.5ZM8.75 6.25C8.75 5.25544 9.14509 4.30161 9.84835 3.59835C10.5516 2.89509 11.5054 2.5 12.5 2.5H17.5C18.4946 2.5 19.4484 2.89509 20.1517 3.59835C20.8549 4.30161 21.25 5.25544 21.25 6.25V7.5H8.75V6.25Z" fill="#FCAC12"/>
</svg>
