<svg width="18" height="18" viewBox="0 0 18 18" fill="none" xmlns="http://www.w3.org/2000/svg">
<path d="M13.5 0C12.5054 0 11.5516 0.395088 10.8483 1.09835C10.1451 1.80161 9.75 2.75544 9.75 3.75V5.25C9.74982 6.11449 10.0483 6.95249 10.595 7.62218C11.1417 8.29186 11.903 8.7521 12.75 8.925V10.635C12.3123 10.7897 11.9332 11.0761 11.6647 11.4547C11.3962 11.8334 11.2513 12.2858 11.25 12.75V15.75C11.25 16.3467 11.4871 16.919 11.909 17.341C12.331 17.7629 12.9033 18 13.5 18C14.0967 18 14.669 17.7629 15.091 17.341C15.5129 16.919 15.75 16.3467 15.75 15.75V12.75C15.7487 12.2858 15.6038 11.8334 15.3353 11.4547C15.0668 11.0761 14.6877 10.7897 14.25 10.635V8.925C15.097 8.7521 15.8583 8.29186 16.405 7.62218C16.9517 6.95249 17.2502 6.11449 17.25 5.25V3.75C17.25 2.75544 16.8549 1.80161 16.1517 1.09835C15.4484 0.395088 14.4946 0 13.5 0Z" fill="#FD3C4A"/>
<path d="M7.5 0C7.30109 0 7.11032 0.0790178 6.96967 0.21967C6.82902 0.360322 6.75 0.551088 6.75 0.75V3.75C6.75 3.94891 6.67098 4.13968 6.53033 4.28033C6.38968 4.42098 6.19891 4.5 6 4.5C5.80109 4.5 5.61032 4.42098 5.46967 4.28033C5.32902 4.13968 5.25 3.94891 5.25 3.75V0.75C5.25 0.551088 5.17098 0.360322 5.03033 0.21967C4.88968 0.0790178 4.69891 0 4.5 0C4.30109 0 4.11032 0.0790178 3.96967 0.21967C3.82902 0.360322 3.75 0.551088 3.75 0.75V3.75C3.75 3.94891 3.67098 4.13968 3.53033 4.28033C3.38968 4.42098 3.19891 4.5 3 4.5C2.80109 4.5 2.61032 4.42098 2.46967 4.28033C2.32902 4.13968 2.25 3.94891 2.25 3.75V0.75C2.25 0.551088 2.17098 0.360322 2.03033 0.21967C1.88968 0.0790178 1.69891 0 1.5 0C1.30109 0 1.11032 0.0790178 0.96967 0.21967C0.829018 0.360322 0.75 0.551088 0.75 0.75V5.25C0.749824 6.11449 1.04834 6.95249 1.59502 7.62218C2.1417 8.29186 2.90298 8.7521 3.75 8.925V10.635C3.31234 10.7897 2.93325 11.0761 2.6647 11.4547C2.39616 11.8334 2.2513 12.2858 2.25 12.75V15.75C2.25 16.3467 2.48705 16.919 2.90901 17.341C3.33097 17.7629 3.90326 18 4.5 18C5.09674 18 5.66903 17.7629 6.09099 17.341C6.51295 16.919 6.75 16.3467 6.75 15.75V12.75C6.7487 12.2858 6.60384 11.8334 6.3353 11.4547C6.06675 11.0761 5.68766 10.7897 5.25 10.635V8.925C6.09702 8.7521 6.8583 8.29186 7.40498 7.62218C7.95166 6.95249 8.25018 6.11449 8.25 5.25V0.75C8.25 0.551088 8.17098 0.360322 8.03033 0.21967C7.88968 0.0790178 7.69891 0 7.5 0Z" fill="#FD3C4A"/>
</svg>
