<svg width="18" height="18" viewBox="0 0 18 18" fill="none" xmlns="http://www.w3.org/2000/svg">
<path d="M15.75 12H2.25H1.935L2.535 15C2.7079 15.847 3.16813 16.6083 3.83782 17.155C4.50751 17.7017 5.34551 18.0002 6.21 18H11.79C12.6545 18.0002 13.4925 17.7017 14.1622 17.155C14.8319 16.6083 15.2921 15.847 15.465 15L16.065 12H15.75ZM8.25 15.75C8.25 15.9489 8.17098 16.1397 8.03033 16.2803C7.88968 16.421 7.69891 16.5 7.5 16.5C7.30109 16.5 7.11032 16.421 6.96967 16.2803C6.82902 16.1397 6.75 15.9489 6.75 15.75V14.25C6.75 14.0511 6.82902 13.8603 6.96967 13.7197C7.11032 13.579 7.30109 13.5 7.5 13.5C7.69891 13.5 7.88968 13.579 8.03033 13.7197C8.17098 13.8603 8.25 14.0511 8.25 14.25V15.75ZM11.25 15.75C11.25 15.9489 11.171 16.1397 11.0303 16.2803C10.8897 16.421 10.6989 16.5 10.5 16.5C10.3011 16.5 10.1103 16.421 9.96967 16.2803C9.82902 16.1397 9.75 15.9489 9.75 15.75V14.25C9.75 14.0511 9.82902 13.8603 9.96967 13.7197C10.1103 13.579 10.3011 13.5 10.5 13.5C10.6989 13.5 10.8897 13.579 11.0303 13.7197C11.171 13.8603 11.25 14.0511 11.25 14.25V15.75Z" fill="#FCAC12"/>
<path d="M15.75 4.5H14.25V3.75C14.25 3.25754 14.153 2.76991 13.9645 2.31494C13.7761 1.85997 13.4999 1.44657 13.1517 1.09835C12.8034 0.75013 12.39 0.473907 11.9351 0.285452C11.4801 0.0969966 10.9925 0 10.5 0H7.5C6.50544 0 5.55161 0.395088 4.84835 1.09835C4.14509 1.80161 3.75 2.75544 3.75 3.75V4.5H2.25C1.65326 4.5 1.08097 4.73705 0.65901 5.15901C0.237053 5.58097 0 6.15326 0 6.75V8.25C0 8.84674 0.237053 9.41903 0.65901 9.84099C1.08097 10.2629 1.65326 10.5 2.25 10.5H15.75C16.3467 10.5 16.919 10.2629 17.341 9.84099C17.7629 9.41903 18 8.84674 18 8.25V6.75C18 6.15326 17.7629 5.58097 17.341 5.15901C16.919 4.73705 16.3467 4.5 15.75 4.5ZM5.25 3.75C5.25 3.15326 5.48705 2.58097 5.90901 2.15901C6.33097 1.73705 6.90326 1.5 7.5 1.5H10.5C11.0967 1.5 11.669 1.73705 12.091 2.15901C12.5129 2.58097 12.75 3.15326 12.75 3.75V4.5H5.25V3.75Z" fill="#FCAC12"/>
</svg>
