<svg width="24" height="24" viewBox="0 0 24 24" fill="none" xmlns="http://www.w3.org/2000/svg">
<path d="M6 24C9.31371 24 12 21.3137 12 18C12 14.6863 9.31371 12 6 12C2.68629 12 0 14.6863 0 18C0 21.3137 2.68629 24 6 24Z" fill="#FCFCFC"/>
<path d="M18 12C21.3137 12 24 9.31371 24 6C24 2.68629 21.3137 0 18 0C14.6863 0 12 2.68629 12 6C12 9.31371 14.6863 12 18 12Z" fill="#FCFCFC"/>
<path d="M2.16004 10C2.25586 10.0359 2.35775 10.0529 2.46005 10.05C2.68062 10.0601 2.89834 9.99691 3.07924 9.87028C3.26013 9.74365 3.39403 9.56071 3.46005 9.35C3.81998 8.19967 4.40731 7.13336 5.18719 6.21434C5.96707 5.29532 6.92361 4.54231 8.00005 4V5C8.00005 5.26522 8.1054 5.51957 8.29294 5.70711C8.48047 5.89464 8.73483 6 9.00005 6C9.26526 6 9.51962 5.89464 9.70715 5.70711C9.89469 5.51957 10 5.26522 10 5V1C10 0.734784 9.89469 0.48043 9.70715 0.292893C9.51962 0.105357 9.26526 0 9.00005 0L5.00005 0C4.73483 0 4.48047 0.105357 4.29294 0.292893C4.1054 0.48043 4.00005 0.734784 4.00005 1C4.00005 1.26522 4.1054 1.51957 4.29294 1.70711C4.48047 1.89464 4.73483 2 5.00005 2L7.42005 2C6.01922 2.64011 4.76843 3.56725 3.74863 4.72141C2.72884 5.87557 1.96278 7.23101 1.50005 8.7C1.45358 8.82847 1.43393 8.96509 1.44231 9.10145C1.45069 9.2378 1.48692 9.37099 1.54876 9.4928C1.61061 9.61462 1.69675 9.72247 1.80189 9.8097C1.90702 9.89693 2.02891 9.9617 2.16004 10Z" fill="#FCFCFC"/>
<path d="M15 18C14.7348 18 14.4804 18.1054 14.2929 18.2929C14.1054 18.4805 14 18.7348 14 19V23C14 23.2652 14.1054 23.5196 14.2929 23.7071C14.4804 23.8947 14.7348 24 15 24H19C19.2652 24 19.5196 23.8947 19.7071 23.7071C19.8946 23.5196 20 23.2652 20 23C20 22.7348 19.8946 22.4805 19.7071 22.2929C19.5196 22.1054 19.2652 22 19 22H16.57C18.1462 21.2808 19.5303 20.1994 20.6095 18.844C21.6886 17.4885 22.4323 15.8974 22.78 14.2C22.8063 14.0687 22.8064 13.9335 22.7804 13.8021C22.7544 13.6707 22.7028 13.5458 22.6285 13.4343C22.5542 13.3229 22.4587 13.2272 22.3475 13.1527C22.2362 13.0782 22.1113 13.0263 21.98 13C21.8487 12.9738 21.7135 12.9736 21.5821 12.9996C21.4507 13.0256 21.3257 13.0772 21.2143 13.1515C21.1029 13.2258 21.0072 13.3213 20.9327 13.4326C20.8581 13.5438 20.8063 13.6687 20.78 13.8C20.5085 15.1358 19.9372 16.3924 19.1092 17.4751C18.2812 18.5578 17.218 19.4382 16 20.05V19C16 18.7348 15.8946 18.4805 15.7071 18.2929C15.5196 18.1054 15.2652 18 15 18Z" fill="#FCFCFC"/>
</svg>
