<svg width="375" height="170" viewBox="0 0 375 170" fill="none" xmlns="http://www.w3.org/2000/svg">
<path d="M50.6989 101.105C23.9299 101.105 11.5989 120.054 0 120.054V169.5H375V111.178C309.64 111.178 319.222 0 288.459 0C255.68 0 224.559 111.178 197.181 111.178C174.488 111.178 166.645 81.1588 145.743 81.1588C116.215 81.1588 115.485 140 91.2782 140C74.6363 140 73.1235 101.105 50.6989 101.105Z" fill="url(#paint0_linear_1655_1290)"/>
<path d="M0 120.054C11.5989 120.054 23.9299 101.105 50.6989 101.105C73.1235 101.105 74.6363 140 91.2782 140C115.485 140 116.215 81.1588 145.743 81.1588C166.645 81.1588 174.488 111.178 197.181 111.178C224.559 111.178 255.68 0 288.459 0C319.222 0 309.64 111.178 375 111.178" stroke="#7F3DFF" stroke-width="6" stroke-linecap="round" stroke-linejoin="round"/>
<defs>
<linearGradient id="paint0_linear_1655_1290" x1="187.5" y1="0" x2="187.5" y2="169.5" gradientUnits="userSpaceOnUse">
<stop stop-color="#8B50FF" stop-opacity="0.24"/>
<stop offset="1" stop-color="#8B50FF" stop-opacity="0"/>
</linearGradient>
</defs>
</svg>
