<svg width="31" height="33" viewBox="0 0 31 33" fill="none" xmlns="http://www.w3.org/2000/svg">
<path d="M29.25 26.25C28.9185 26.25 28.6005 26.3817 28.3661 26.6161C28.1317 26.8506 28 27.1685 28 27.5C27.9983 27.9384 27.8812 28.3687 27.6607 28.7476C27.4402 29.1265 27.1239 29.4408 26.7436 29.6589C26.3632 29.8769 25.9322 29.9912 25.4938 29.9901C25.0554 29.989 24.625 29.8726 24.2457 29.6527C23.8665 29.4327 23.5517 29.1169 23.3331 28.7369C23.1145 28.3569 22.9996 27.926 23 27.4876C23.0005 27.0492 23.1162 26.6186 23.3356 26.239C23.555 25.8595 23.8703 25.5442 24.25 25.325C24.2149 25.5817 24.2604 25.8429 24.3803 26.0726C24.5001 26.3022 24.6883 26.489 24.9189 26.607C25.1495 26.7251 25.411 26.7685 25.6674 26.7315C25.9238 26.6944 26.1623 26.5786 26.35 26.4L28.1125 24.6375C28.2297 24.5213 28.3226 24.3831 28.3861 24.2308C28.4496 24.0784 28.4822 23.915 28.4822 23.75C28.4822 23.585 28.4496 23.4216 28.3861 23.2693C28.3226 23.117 28.2297 22.9787 28.1125 22.8625L26.35 21.1C26.2338 20.9829 26.0955 20.8899 25.9432 20.8264C25.7909 20.763 25.6275 20.7303 25.4625 20.7303C25.2975 20.7303 25.1341 20.763 24.9818 20.8264C24.8295 20.8899 24.6912 20.9829 24.575 21.1C24.3853 21.2992 24.2666 21.5553 24.2372 21.8287C24.2078 22.1022 24.2694 22.3777 24.4125 22.6125C23.4931 22.8174 22.6502 23.2778 21.9811 23.9408C21.3119 24.6037 20.8436 25.4422 20.6301 26.3597C20.4166 27.2771 20.4666 28.2362 20.7744 29.1265C21.0822 30.0168 21.6352 30.802 22.3697 31.3917C23.1042 31.9814 23.9904 32.3517 24.9261 32.4598C25.8619 32.5679 26.8091 32.4095 27.6588 32.0028C28.5084 31.5961 29.2259 30.9577 29.7286 30.161C30.2312 29.3644 30.4986 28.442 30.5 27.5C30.5 27.1685 30.3683 26.8506 30.1339 26.6161C29.8995 26.3817 29.5815 26.25 29.25 26.25Z" fill="#7F3DFF"/>
<path d="M23.725 1.91253C23.1809 1.57648 22.56 1.38514 21.9211 1.3567C21.2823 1.32825 20.6468 1.46365 20.075 1.75003L19.7 1.93753C19.5389 2.00997 19.3642 2.04742 19.1875 2.04742C19.0108 2.04742 18.8361 2.00997 18.675 1.93753L14.3875 0.26253C13.4965 -0.0923114 12.5035 -0.0923114 11.6125 0.26253L7.325 1.97503C7.16385 2.04747 6.98918 2.08492 6.8125 2.08492C6.63582 2.08492 6.46115 2.04747 6.3 1.97503L5.925 1.78753C5.35649 1.50366 4.72517 1.36891 4.0903 1.39593C3.45544 1.42295 2.83785 1.61085 2.29551 1.942C1.75318 2.27315 1.30389 2.73668 0.98982 3.28908C0.67575 3.84148 0.507203 4.46463 0.5 5.10003V23.75C0.5 25.4076 1.15848 26.9973 2.33058 28.1694C3.50269 29.3415 5.0924 30 6.75 30H18.475C18.17 29.2014 18.0092 28.3549 18 27.5V27.4C18.002 26.0538 18.3664 24.733 19.0548 23.5761C19.7432 22.4192 20.7303 21.469 21.9125 20.825C22.0861 20.2216 22.4085 19.6715 22.85 19.225L23 19.0875C23.2367 18.8791 23.4968 18.6987 23.775 18.55C24.234 18.3169 24.7361 18.1807 25.25 18.15H25.5V5.10003C25.5 4.46156 25.3369 3.83368 25.0263 3.27587C24.7156 2.71806 24.2677 2.24879 23.725 1.91253ZM15.5 21.25H8C7.66848 21.25 7.35054 21.1183 7.11612 20.8839C6.8817 20.6495 6.75 20.3316 6.75 20C6.75 19.6685 6.8817 19.3506 7.11612 19.1161C7.35054 18.8817 7.66848 18.75 8 18.75H15.5C15.8315 18.75 16.1495 18.8817 16.3839 19.1161C16.6183 19.3506 16.75 19.6685 16.75 20C16.75 20.3316 16.6183 20.6495 16.3839 20.8839C16.1495 21.1183 15.8315 21.25 15.5 21.25ZM18 13.75H8C7.66848 13.75 7.35054 13.6183 7.11612 13.3839C6.8817 13.1495 6.75 12.8316 6.75 12.5C6.75 12.1685 6.8817 11.8506 7.11612 11.6161C7.35054 11.3817 7.66848 11.25 8 11.25H18C18.3315 11.25 18.6495 11.3817 18.8839 11.6161C19.1183 11.8506 19.25 12.1685 19.25 12.5C19.25 12.8316 19.1183 13.1495 18.8839 13.3839C18.6495 13.6183 18.3315 13.75 18 13.75Z" fill="#7F3DFF"/>
</svg>
