<svg width="24" height="18" viewBox="0 0 24 18" fill="none" xmlns="http://www.w3.org/2000/svg">
<path d="M1.37491 8.5L2.23808 7.64481L7.64788 2.285L1.37491 8.5ZM1.37491 8.5H2.58998M1.37491 8.5H2.58998M2.58998 8.5H23C23.1326 8.5 23.2598 8.55268 23.3535 8.64645C23.4473 8.74021 23.5 8.86739 23.5 9C23.5 9.13261 23.4473 9.25979 23.3535 9.35355C23.2598 9.44732 23.1326 9.5 23 9.5H2.58998H1.38288L2.23643 10.3536L7.59643 15.7136L7.59788 15.715C7.64475 15.7615 7.68195 15.8168 7.70733 15.8777C7.73271 15.9386 7.74578 16.004 7.74578 16.07C7.74578 16.136 7.73271 16.2014 7.70733 16.2623C7.68194 16.3232 7.64475 16.3785 7.59788 16.425L7.59788 16.425C7.55116 16.4713 7.49575 16.508 7.43483 16.5329C7.37391 16.5578 7.30868 16.5704 7.24288 16.57L7.24209 16.57C7.11121 16.5695 6.98578 16.5176 6.89272 16.4256C6.89251 16.4254 6.8923 16.4252 6.89209 16.425L1.23376 10.7667C1.2337 10.7666 1.23364 10.7665 1.23358 10.7665C0.765524 10.2978 0.502625 9.66242 0.502625 9C0.502625 8.3379 0.765272 7.70285 1.23291 7.23418C1.23319 7.2339 1.23348 7.23362 1.23376 7.23333L6.94198 1.5751L6.94248 1.5746C7.03617 1.48148 7.16289 1.42921 7.29498 1.42921C7.42708 1.42921 7.5538 1.48148 7.64748 1.5746L7.64788 1.575M2.58998 8.5L7.64788 1.575M7.64788 1.575C7.69475 1.62148 7.73195 1.67678 7.75733 1.73771C7.78271 1.79864 7.79578 1.86399 7.79578 1.93C7.79578 1.99601 7.78271 2.06136 7.75733 2.12229C7.73198 2.18313 7.69485 2.23837 7.64808 2.28481L7.64788 1.575Z" fill="#7F3DFF" stroke="white"/>
</svg>
