<svg width="21" height="22" viewBox="0 0 21 22" fill="none" xmlns="http://www.w3.org/2000/svg">
<path d="M2.78356 13.8136L2.78311 13.814C2.15215 14.4434 1.72227 15.2459 1.54797 16.1199C1.37367 16.9939 1.4628 17.8999 1.80405 18.7232C2.14531 19.5464 2.72333 20.2498 3.46483 20.7442C4.20563 21.2381 5.07626 21.5011 5.96656 21.5C6.55928 21.4925 7.14469 21.3679 7.68914 21.1335C8.2344 20.8987 8.72781 20.5584 9.14095 20.132L9.14662 20.1262L9.14666 20.1262L17.6365 11.6465C17.6365 11.6464 17.6366 11.6463 17.6367 11.6462C18.8556 10.4272 19.5404 8.77392 19.5404 7.05001C19.5404 5.32601 18.8555 3.67262 17.6365 2.45356C16.4174 1.23451 14.764 0.549652 13.04 0.549652C11.3164 0.549652 9.66343 1.23417 8.44447 2.45266C8.44416 2.45296 8.44386 2.45326 8.44356 2.45356L3.51022 7.43675C3.43455 7.53065 3.39526 7.64892 3.39992 7.76976C3.40478 7.8956 3.45695 8.01497 3.546 8.10402C3.63504 8.19307 3.75441 8.24523 3.88025 8.25009C4.0004 8.25473 4.118 8.21592 4.21164 8.1411L9.14468 3.15824L9.1467 3.15621C10.1794 2.12496 11.5795 1.5462 13.0389 1.54723C14.4983 1.54826 15.8976 2.12901 16.9288 3.16171C17.9601 4.19441 18.5388 5.59447 18.5378 7.0539C18.5368 8.51321 17.9561 9.91235 16.9236 10.9436L2.78356 13.8136ZM2.78356 13.8136L11.2636 5.33356L11.264 5.33315M2.78356 13.8136L11.264 5.33315M11.264 5.33315C11.7326 4.86344 12.3686 4.59912 13.0321 4.59834C13.6955 4.59756 14.3322 4.86038 14.8019 5.32898C15.2716 5.79758 15.5359 6.43358 15.5367 7.09706C15.5375 7.76035 15.2748 8.39679 14.8065 8.86646C14.8063 8.86659 14.8062 8.86673 14.806 8.86687L6.31751 17.3554C6.31737 17.3555 6.31724 17.3557 6.3171 17.3558C6.22346 17.4487 6.09691 17.5008 5.96501 17.5008C5.83292 17.5008 5.70619 17.4485 5.61251 17.3554L5.61211 17.355M11.264 5.33315L5.61211 17.355M5.61211 17.355C5.56524 17.3085 5.52805 17.2532 5.50266 17.1923C5.47728 17.1314 5.46421 17.066 5.46421 17C5.46421 16.934 5.47728 16.8686 5.50266 16.8077C5.52805 16.7468 5.56524 16.6915 5.61211 16.645L5.61356 16.6436M5.61211 17.355L5.61356 16.6436M5.61356 16.6436L14.0921 8.16501C14.0924 8.16475 14.0926 8.1645 14.0929 8.16424C14.2331 8.02496 14.3444 7.85933 14.4204 7.67687C14.4966 7.49409 14.5358 7.29803 14.5358 7.10001C14.5358 6.90199 14.4966 6.70593 14.4204 6.52314C14.3443 6.34036 14.2327 6.17445 14.0921 6.03501C13.8111 5.75588 13.4311 5.59922 13.035 5.59922C12.6387 5.59922 12.2586 5.75603 11.9775 6.03541L11.9775 6.03541M5.61356 16.6436L11.9775 6.03541M11.9775 6.03541L3.4875 14.4754L3.48604 14.4769M11.9775 6.03541L3.48604 14.4769M3.48604 14.4769C2.83012 15.1343 2.46225 16.0254 2.46334 16.9541M3.48604 14.4769L2.46334 16.9541M2.46334 16.9541C2.46443 17.8828 2.83441 18.7731 3.49187 19.429M2.46334 16.9541L3.49187 19.429M3.49187 19.429C4.14933 20.0849 5.04043 20.4528 5.96913 20.4517M3.49187 19.429L5.96913 20.4517M5.96913 20.4517C6.89764 20.4506 7.78768 20.0808 8.44356 19.4236L5.96913 20.4517ZM8.44398 19.4231L16.9233 10.9438L8.44398 19.4231Z" fill="black" stroke="#91919F"/>
</svg>
