<svg width="22" height="16" viewBox="0 0 22 16" fill="none" xmlns="http://www.w3.org/2000/svg">
<path d="M11 0.5C8.78923 0.502027 6.62196 1.11475 4.73736 2.27057C2.85276 3.42639 1.32409 5.08036 0.320023 7.05C0.167512 7.34344 0.0878906 7.66929 0.0878906 8C0.0878906 8.33071 0.167512 8.65656 0.320023 8.95C1.32704 10.9156 2.85698 12.5652 4.74136 13.7171C6.62574 14.869 8.79146 15.4785 11 15.4785C13.2086 15.4785 15.3743 14.869 17.2587 13.7171C19.1431 12.5652 20.673 10.9156 21.68 8.95C21.8325 8.65656 21.9122 8.33071 21.9122 8C21.9122 7.66929 21.8325 7.34344 21.68 7.05C20.676 5.08036 19.1473 3.42639 17.2627 2.27057C15.3781 1.11475 13.2108 0.502027 11 0.5V0.5Z" stroke="#91919F" stroke-width="2" stroke-linecap="round" stroke-linejoin="round"/>
<path d="M11 11.5C12.933 11.5 14.5 9.933 14.5 8C14.5 6.067 12.933 4.5 11 4.5C9.067 4.5 7.5 6.067 7.5 8C7.5 9.933 9.067 11.5 11 11.5Z" stroke="#91919F" stroke-width="2" stroke-linecap="round" stroke-linejoin="round"/>
</svg>
