<svg width="26" height="32" viewBox="0 0 26 32" fill="none" xmlns="http://www.w3.org/2000/svg">
<path d="M21.8375 13.1749C20.9854 12.312 20.0077 11.5829 18.9375 11.0124C18.6576 10.8558 18.3697 10.714 18.075 10.5874C17.4808 10.3187 16.8664 10.0972 16.2375 9.9249L15.6375 9.7874C15.2 9.6999 14.775 9.6374 14.3875 9.5874H13.8H13.5C13.1796 9.56266 12.8579 9.56266 12.5375 9.5874H12.2625H11.8H11.625C11.2048 9.62348 10.7873 9.68611 10.375 9.7749L9.7875 9.9124C9.16405 10.084 8.55408 10.3013 7.9625 10.5624C7.6625 10.6999 7.3625 10.8374 7.0875 10.9874C5.09664 12.0562 3.43272 13.6447 2.27275 15.5838C1.11278 17.523 0.500141 19.7403 0.5 21.9999V25.7499C0.5 27.4075 1.15848 28.9972 2.33058 30.1693C3.50269 31.3414 5.0924 31.9999 6.75 31.9999H19.25C20.9076 31.9999 22.4973 31.3414 23.6694 30.1693C24.8415 28.9972 25.5 27.4075 25.5 25.7499V21.9999C25.5077 20.3592 25.1876 18.7335 24.5587 17.2181C23.9298 15.7026 23.0046 14.3281 21.8375 13.1749ZM12.375 19.4999H13.625C14.4538 19.417 15.2816 19.6668 15.9262 20.1942C16.5709 20.7217 16.9796 21.4836 17.0625 22.3124C17.1454 23.1412 16.8956 23.969 16.3682 24.6136C15.8407 25.2583 15.0788 25.667 14.25 25.7499C14.25 26.0814 14.1183 26.3994 13.8839 26.6338C13.6495 26.8682 13.3315 26.9999 13 26.9999C12.6685 26.9999 12.3505 26.8682 12.1161 26.6338C11.8817 26.3994 11.75 26.0814 11.75 25.7499H10.5C10.1685 25.7499 9.85054 25.6182 9.61612 25.3838C9.3817 25.1494 9.25 24.8314 9.25 24.4999C9.25 24.1684 9.3817 23.8504 9.61612 23.616C9.85054 23.3816 10.1685 23.2499 10.5 23.2499H13.625C13.7908 23.2499 13.9497 23.1841 14.0669 23.0668C14.1842 22.9496 14.25 22.7907 14.25 22.6249C14.25 22.4591 14.1842 22.3002 14.0669 22.183C13.9497 22.0658 13.7908 21.9999 13.625 21.9999H12.375C11.6 22.0007 10.8524 21.7135 10.2773 21.194C9.70217 20.6746 9.34056 19.96 9.26268 19.189C9.1848 18.4179 9.39619 17.6454 9.85582 17.0215C10.3155 16.3975 10.9905 15.9666 11.75 15.8124V15.7499C11.75 15.4184 11.8817 15.1004 12.1161 14.866C12.3505 14.6316 12.6685 14.4999 13 14.4999C13.3315 14.4999 13.6495 14.6316 13.8839 14.866C14.1183 15.1004 14.25 15.4184 14.25 15.7499H15.5C15.8315 15.7499 16.1495 15.8816 16.3839 16.116C16.6183 16.3504 16.75 16.6684 16.75 16.9999C16.75 17.3314 16.6183 17.6494 16.3839 17.8838C16.1495 18.1182 15.8315 18.2499 15.5 18.2499H12.375C12.2092 18.2499 12.0503 18.3158 11.9331 18.433C11.8158 18.5502 11.75 18.7091 11.75 18.8749C11.75 19.0407 11.8158 19.1996 11.9331 19.3168C12.0503 19.4341 12.2092 19.4999 12.375 19.4999Z" fill="#00A86B"/>
<path d="M6.66245 8.42501L6.92495 8.30001C7.61248 7.98784 8.32289 7.72875 9.04995 7.52501C10.3385 7.18079 11.6662 7.00433 13 7.00001C14.334 6.99989 15.6622 7.17643 16.95 7.52501C17.6848 7.70894 18.4038 7.95138 19.1 8.25001L19.3375 8.36251L19.825 5.21251C19.9252 4.55894 19.8508 3.89049 19.6094 3.27493C19.368 2.65936 18.9681 2.11857 18.4503 1.70738C17.9325 1.29619 17.3152 1.02921 16.661 0.933522C16.0067 0.837832 15.3388 0.916829 14.725 1.16251L13.475 1.66251C13.178 1.78079 12.8469 1.78079 12.55 1.66251L11.3 1.16251C10.6861 0.916829 10.0182 0.837832 9.36392 0.933522C8.70967 1.02921 8.09236 1.29619 7.57456 1.70738C7.05676 2.11857 6.65689 2.65936 6.41548 3.27493C6.17408 3.89049 6.09972 4.55894 6.19995 5.21251L6.66245 8.42501Z" fill="#00A86B"/>
</svg>
