<svg width="19" height="20" viewBox="0 0 19 20" fill="none" xmlns="http://www.w3.org/2000/svg">
<mask id="path-1-inside-1_1655_3936" fill="white">
<path d="M9.3474 11.8942L16.4224 18.9692C16.5345 19.1001 16.6724 19.2063 16.8274 19.2814C16.9825 19.3564 17.1514 19.3986 17.3236 19.4052C17.4957 19.4119 17.6674 19.3829 17.8278 19.32C17.9882 19.2572 18.1339 19.1618 18.2557 19.04C18.3775 18.9182 18.4729 18.7725 18.5357 18.6121C18.5985 18.4517 18.6275 18.28 18.6209 18.1079C18.6142 17.9358 18.5721 17.7668 18.4971 17.6118C18.422 17.4567 18.3157 17.3188 18.1849 17.2067L11.1099 10.1317L18.1849 3.05672C18.3897 2.81759 18.4967 2.50999 18.4845 2.1954C18.4724 1.8808 18.342 1.58238 18.1194 1.35976C17.8967 1.13714 17.5983 1.00673 17.2837 0.994577C16.9691 0.982426 16.6615 1.08943 16.4224 1.29422L9.3474 8.36922L2.2724 1.29422C2.0382 1.0614 1.72138 0.930725 1.39115 0.930725C1.06092 0.930725 0.744104 1.0614 0.5099 1.29422C0.277087 1.52842 0.146409 1.84523 0.146409 2.17547C0.146409 2.5057 0.277087 2.82251 0.5099 3.05672L7.5849 10.1317L0.5099 17.2067C0.277087 17.4409 0.146409 17.7577 0.146409 18.088C0.146409 18.4182 0.277087 18.735 0.5099 18.9692C0.744104 19.202 1.06092 19.3327 1.39115 19.3327C1.72138 19.3327 2.0382 19.202 2.2724 18.9692L9.3474 11.8942Z"/>
</mask>
<path d="M9.3474 11.8942L16.4224 18.9692C16.5345 19.1001 16.6724 19.2063 16.8274 19.2814C16.9825 19.3564 17.1514 19.3986 17.3236 19.4052C17.4957 19.4119 17.6674 19.3829 17.8278 19.32C17.9882 19.2572 18.1339 19.1618 18.2557 19.04C18.3775 18.9182 18.4729 18.7725 18.5357 18.6121C18.5985 18.4517 18.6275 18.28 18.6209 18.1079C18.6142 17.9358 18.5721 17.7668 18.4971 17.6118C18.422 17.4567 18.3157 17.3188 18.1849 17.2067L11.1099 10.1317L18.1849 3.05672C18.3897 2.81759 18.4967 2.50999 18.4845 2.1954C18.4724 1.8808 18.342 1.58238 18.1194 1.35976C17.8967 1.13714 17.5983 1.00673 17.2837 0.994577C16.9691 0.982426 16.6615 1.08943 16.4224 1.29422L9.3474 8.36922L2.2724 1.29422C2.0382 1.0614 1.72138 0.930725 1.39115 0.930725C1.06092 0.930725 0.744104 1.0614 0.5099 1.29422C0.277087 1.52842 0.146409 1.84523 0.146409 2.17547C0.146409 2.5057 0.277087 2.82251 0.5099 3.05672L7.5849 10.1317L0.5099 17.2067C0.277087 17.4409 0.146409 17.7577 0.146409 18.088C0.146409 18.4182 0.277087 18.735 0.5099 18.9692C0.744104 19.202 1.06092 19.3327 1.39115 19.3327C1.72138 19.3327 2.0382 19.202 2.2724 18.9692L9.3474 11.8942Z" fill="black"/>
<path d="M9.3474 11.8942L11.1152 10.1264L9.3474 8.35868L7.57963 10.1264L9.3474 11.8942ZM16.4224 18.9692L18.3213 17.3431L18.2584 17.2697L18.1902 17.2014L16.4224 18.9692ZM18.1849 17.2067L16.4171 18.9745L16.4854 19.0428L16.5588 19.1056L18.1849 17.2067ZM11.1099 10.1317L9.34213 8.36395L7.57436 10.1317L9.34213 11.8995L11.1099 10.1317ZM18.1849 3.05672L19.9527 4.82448L20.0209 4.7562L20.0838 4.68286L18.1849 3.05672ZM16.4224 1.29422L14.7963 -0.604642L14.7229 -0.541831L14.6546 -0.47355L16.4224 1.29422ZM9.3474 8.36922L7.57963 10.137L9.3474 11.9048L11.1152 10.137L9.3474 8.36922ZM2.2724 1.29422L4.04017 -0.473558L4.0349 -0.478801L2.2724 1.29422ZM0.5099 1.29422L-1.2526 -0.478801L-1.25787 -0.473558L-1.26312 -0.468283L0.5099 1.29422ZM0.5099 3.05672L-1.26313 4.81922L-1.25787 4.82448L0.5099 3.05672ZM7.5849 10.1317L9.35267 11.8995L11.1204 10.1317L9.35267 8.36395L7.5849 10.1317ZM0.5099 17.2067L-1.25787 15.4389L-1.26312 15.4442L0.5099 17.2067ZM0.5099 18.9692L-1.26312 20.7317L-1.25787 20.737L-1.2526 20.7422L0.5099 18.9692ZM2.2724 18.9692L4.03491 20.7422L4.04017 20.737L2.2724 18.9692ZM7.57963 13.662L14.6546 20.737L18.1902 17.2014L11.1152 10.1264L7.57963 13.662ZM14.5235 20.5954C14.8597 20.9879 15.2734 21.3067 15.7387 21.5318L17.9162 17.0309C18.0713 17.1059 18.2092 17.2122 18.3213 17.3431L14.5235 20.5954ZM15.7387 21.5318C16.2039 21.7569 16.7106 21.8834 17.2271 21.9034L17.4201 16.9071C17.5922 16.9137 17.7611 16.9559 17.9162 17.0309L15.7387 21.5318ZM17.2271 21.9034C17.7435 21.9233 18.2585 21.8363 18.7397 21.6477L16.9159 16.9923C17.0763 16.9294 17.2479 16.9004 17.4201 16.9071L17.2271 21.9034ZM18.7397 21.6477C19.221 21.4592 19.658 21.1733 20.0235 20.8078L16.4879 17.2723C16.6098 17.1504 16.7554 17.0551 16.9159 16.9923L18.7397 21.6477ZM20.0235 20.8078C20.3889 20.4423 20.6749 20.0053 20.8634 19.5241L16.208 17.7002C16.2708 17.5398 16.3661 17.3941 16.4879 17.2723L20.0235 20.8078ZM20.8634 19.5241C21.052 19.0429 21.139 18.5279 21.119 18.0114L16.1228 18.2044C16.1161 18.0322 16.1451 17.8606 16.208 17.7002L20.8634 19.5241ZM21.119 18.0114C21.0991 17.495 20.9726 16.9882 20.7475 16.523L16.2466 18.7005C16.1716 18.5455 16.1294 18.3765 16.1228 18.2044L21.119 18.0114ZM20.7475 16.523C20.5224 16.0577 20.2036 15.644 19.811 15.3079L16.5588 19.1056C16.4279 18.9935 16.3216 18.8556 16.2466 18.7005L20.7475 16.523ZM19.9527 15.439L12.8777 8.36395L9.34213 11.8995L16.4171 18.9745L19.9527 15.439ZM12.8777 11.8995L19.9527 4.82448L16.4171 1.28895L9.34213 8.36395L12.8777 11.8995ZM20.0838 4.68286C20.6981 3.96548 21.0191 3.0427 20.9827 2.09891L15.9864 2.29189C15.9742 1.97729 16.0813 1.6697 16.286 1.43058L20.0838 4.68286ZM20.9827 2.09891C20.9462 1.15512 20.555 0.259848 19.8871 -0.408004L16.3516 3.12753C16.129 2.90491 15.9986 2.60649 15.9864 2.29189L20.9827 2.09891ZM19.8871 -0.408004C19.2193 -1.07586 18.324 -1.46711 17.3802 -1.50356L17.1872 3.49271C16.8726 3.48056 16.5742 3.35014 16.3516 3.12753L19.8871 -0.408004ZM17.3802 -1.50356C16.4364 -1.54001 15.5136 -1.21899 14.7963 -0.604642L18.0485 3.19308C17.8094 3.39786 17.5018 3.50487 17.1872 3.49271L17.3802 -1.50356ZM14.6546 -0.47355L7.57963 6.60145L11.1152 10.137L18.1902 3.06198L14.6546 -0.47355ZM11.1152 6.60145L4.04017 -0.47355L0.504632 3.06198L7.57963 10.137L11.1152 6.60145ZM4.0349 -0.478801C3.33229 -1.17724 2.38185 -1.56927 1.39115 -1.56927V3.43072C1.06091 3.43072 0.7441 3.30005 0.5099 3.06723L4.0349 -0.478801ZM1.39115 -1.56927C0.400449 -1.56927 -0.549994 -1.17724 -1.2526 -0.478801L2.2724 3.06723C2.0382 3.30005 1.72139 3.43072 1.39115 3.43072V-1.56927ZM-1.26312 -0.468283C-1.96156 0.234327 -2.35359 1.18477 -2.35359 2.17547H2.64641C2.64641 2.5057 2.51573 2.82251 2.28292 3.05672L-1.26312 -0.468283ZM-2.35359 2.17547C-2.35359 3.16616 -1.96156 4.11661 -1.26312 4.81922L2.28292 1.29422C2.51573 1.52842 2.64641 1.84524 2.64641 2.17547H-2.35359ZM-1.25787 4.82448L5.81713 11.8995L9.35267 8.36395L2.27767 1.28895L-1.25787 4.82448ZM5.81713 8.36395L-1.25787 15.439L2.27767 18.9745L9.35267 11.8995L5.81713 8.36395ZM-1.26312 15.4442C-1.96156 16.1468 -2.35359 17.0973 -2.35359 18.088H2.64641C2.64641 18.4182 2.51573 18.735 2.28292 18.9692L-1.26312 15.4442ZM-2.35359 18.088C-2.35359 19.0787 -1.96156 20.0291 -1.26312 20.7317L2.28292 17.2067C2.51573 17.4409 2.64641 17.7577 2.64641 18.088H-2.35359ZM-1.2526 20.7422C-0.54999 21.4407 0.400455 21.8327 1.39115 21.8327V16.8327C1.72138 16.8327 2.0382 16.9634 2.2724 17.1962L-1.2526 20.7422ZM1.39115 21.8327C2.38184 21.8327 3.33229 21.4407 4.0349 20.7422L0.5099 17.1962C0.744104 16.9634 1.06092 16.8327 1.39115 16.8327V21.8327ZM4.04017 20.737L11.1152 13.662L7.57963 10.1264L0.504632 17.2014L4.04017 20.737Z" fill="#FCFCFC" mask="url(#path-1-inside-1_1655_3936)"/>
</svg>
