<svg width="10" height="20" viewBox="0 0 10 20" fill="none" xmlns="http://www.w3.org/2000/svg">
<path d="M8.40999 19.4898C8.14622 19.486 7.89462 19.3782 7.70999 19.1898L2.04999 13.5398C1.58436 13.0753 1.21493 12.5236 0.962867 11.9161C0.710802 11.3087 0.581055 10.6575 0.581055 9.99979C0.581055 9.34212 0.710802 8.69091 0.962867 8.08346C1.21493 7.47601 1.58436 6.92425 2.04999 6.45979L7.70999 0.809793C7.90129 0.645967 8.14737 0.560361 8.39905 0.570082C8.65072 0.579803 8.88946 0.684135 9.06756 0.86223C9.24565 1.04032 9.34998 1.27906 9.3597 1.53074C9.36942 1.78242 9.28382 2.02849 9.11999 2.21979L3.45999 7.87979C2.89819 8.44229 2.58263 9.20479 2.58263 9.99979C2.58263 10.7948 2.89819 11.5573 3.45999 12.1198L9.11999 17.7798C9.30624 17.9672 9.41079 18.2206 9.41079 18.4848C9.41079 18.749 9.30624 19.0024 9.11999 19.1898C9.02738 19.2843 8.91693 19.3595 8.79506 19.4109C8.67318 19.4624 8.5423 19.4892 8.40999 19.4898Z" fill="#FCFCFC"/>
</svg>
