<svg width="10" height="20" viewBox="0 0 10 20" fill="none" xmlns="http://www.w3.org/2000/svg">
<path d="M1.59003 19.4898C1.45772 19.4892 1.32684 19.4624 1.20496 19.4109C1.08308 19.3595 0.972641 19.2843 0.880026 19.1898C0.693775 19.0024 0.589233 18.749 0.589233 18.4848C0.589233 18.2206 0.693775 17.9672 0.880026 17.7798L6.54003 12.1198C7.10183 11.5573 7.41739 10.7948 7.41739 9.99979C7.41739 9.20479 7.10183 8.44229 6.54003 7.87979L0.880026 2.21979C0.716199 2.02849 0.630593 1.78242 0.640314 1.53074C0.650035 1.27906 0.754368 1.04032 0.932463 0.86223C1.11056 0.684135 1.3493 0.579803 1.60097 0.570082C1.85265 0.560361 2.09872 0.645967 2.29003 0.809793L8.00003 6.45979C8.46566 6.92425 8.83509 7.47601 9.08715 8.08346C9.33922 8.69091 9.46896 9.34212 9.46896 9.99979C9.46896 10.6575 9.33922 11.3087 9.08715 11.9161C8.83509 12.5236 8.46566 13.0753 8.00003 13.5398L2.34003 19.1898C2.24275 19.2892 2.12581 19.3672 1.99667 19.4189C1.86752 19.4705 1.72903 19.4947 1.59003 19.4898Z" fill="#FCFCFC"/>
</svg>
