<svg width="68" height="12" viewBox="0 0 68 12" fill="none" xmlns="http://www.w3.org/2000/svg">
<path fill-rule="evenodd" clip-rule="evenodd" d="M46.5894 0.160156H61.4106C62.6587 0.160156 63.1113 0.290112 63.5676 0.534142C64.0239 0.778172 64.382 1.13628 64.626 1.59257C64.87 2.04887 65 2.50147 65 3.7496V8.07072C65 9.31884 64.87 9.77144 64.626 10.2277C64.382 10.684 64.0239 11.0421 63.5676 11.2862C63.1113 11.5302 62.6587 11.6602 61.4106 11.6602H46.5894C45.3413 11.6602 44.8887 11.5302 44.4324 11.2862C43.9761 11.0421 43.618 10.684 43.374 10.2277C43.13 9.77144 43 9.31884 43 8.07072V3.7496C43 2.50147 43.13 2.04887 43.374 1.59257C43.618 1.13628 43.9761 0.778172 44.4324 0.534142C44.8887 0.290112 45.3413 0.160156 46.5894 0.160156ZM46.5894 1.16016C45.6025 1.16016 45.2579 1.22669 44.904 1.41596C44.622 1.56679 44.4066 1.78214 44.2558 2.06417C44.0665 2.41806 44 2.76262 44 3.7496V8.07072C44 9.0577 44.0665 9.40225 44.2558 9.75614C44.4066 10.0382 44.622 10.2535 44.904 10.4044C45.2579 10.5936 45.6025 10.6602 46.5894 10.6602H61.4106C62.3975 10.6602 62.7421 10.5936 63.096 10.4044C63.378 10.2535 63.5934 10.0382 63.7442 9.75614C63.9335 9.40225 64 9.0577 64 8.07072V3.7496C64 2.76262 63.9335 2.41806 63.7442 2.06417C63.5934 1.78214 63.378 1.56679 63.096 1.41596C62.7421 1.22669 62.3975 1.16016 61.4106 1.16016H46.5894ZM67.5 5.85016C67.5 7.08673 66 7.85016 66 7.85016V3.85016C66 3.85016 67.5 4.61359 67.5 5.85016Z" fill="white" fill-opacity="0.36"/>
<rect x="45" y="2.07666" width="18" height="7.66667" rx="1.6" fill="white"/>
<path fill-rule="evenodd" clip-rule="evenodd" d="M14.623 1.56599C14.6 1.68191 14.6 1.8213 14.6 2.1001V9.8001C14.6 10.0789 14.6 10.2183 14.623 10.3342C14.7177 10.8102 15.0899 11.1824 15.5659 11.277C15.6818 11.3001 15.8212 11.3001 16.1 11.3001C16.3788 11.3001 16.5182 11.3001 16.6341 11.277C17.1101 11.1824 17.4822 10.8102 17.5769 10.3342C17.6 10.2183 17.6 10.0789 17.6 9.8001V2.1001C17.6 1.8213 17.6 1.68191 17.5769 1.56599C17.4822 1.08996 17.1101 0.717843 16.6341 0.623155C16.5182 0.600098 16.3788 0.600098 16.1 0.600098C15.8212 0.600098 15.6818 0.600098 15.5659 0.623155C15.0899 0.717843 14.7177 1.08996 14.623 1.56599ZM9.89999 4.5001C9.89999 4.22131 9.89999 4.08191 9.92305 3.96599C10.0177 3.48996 10.3899 3.11784 10.8659 3.02316C10.9818 3.0001 11.1212 3.0001 11.4 3.0001C11.6788 3.0001 11.8182 3.0001 11.9341 3.02316C12.4101 3.11784 12.7822 3.48996 12.8769 3.96599C12.9 4.08191 12.9 4.22131 12.9 4.5001V9.8001C12.9 10.0789 12.9 10.2183 12.8769 10.3342C12.7822 10.8102 12.4101 11.1824 11.9341 11.277C11.8182 11.3001 11.6788 11.3001 11.4 11.3001C11.1212 11.3001 10.9818 11.3001 10.8659 11.277C10.3899 11.1824 10.0177 10.8102 9.92305 10.3342C9.89999 10.2183 9.89999 10.0789 9.89999 9.8001V4.5001ZM5.32305 6.26599C5.29999 6.38191 5.29999 6.52131 5.29999 6.8001V9.8001C5.29999 10.0789 5.29999 10.2183 5.32305 10.3342C5.41773 10.8102 5.78985 11.1824 6.26588 11.277C6.3818 11.3001 6.52119 11.3001 6.79999 11.3001C7.07878 11.3001 7.21818 11.3001 7.3341 11.277C7.81012 11.1824 8.18224 10.8102 8.27693 10.3342C8.29999 10.2183 8.29999 10.0789 8.29999 9.8001V6.8001C8.29999 6.52131 8.29999 6.38191 8.27693 6.26599C8.18224 5.78997 7.81012 5.41785 7.3341 5.32316C7.21818 5.3001 7.07878 5.3001 6.79999 5.3001C6.52119 5.3001 6.3818 5.3001 6.26588 5.32316C5.78985 5.41785 5.41773 5.78997 5.32305 6.26599ZM0.523058 8.26599C0.5 8.38191 0.5 8.52131 0.5 8.8001V9.8001C0.5 10.0789 0.5 10.2183 0.523058 10.3342C0.617746 10.8102 0.989863 11.1824 1.46589 11.277C1.58181 11.3001 1.72121 11.3001 2 11.3001C2.27879 11.3001 2.41819 11.3001 2.53411 11.277C3.01014 11.1824 3.38225 10.8102 3.47694 10.3342C3.5 10.2183 3.5 10.0789 3.5 9.8001V8.8001C3.5 8.52131 3.5 8.38191 3.47694 8.26599C3.38225 7.78997 3.01014 7.41785 2.53411 7.32316C2.41819 7.3001 2.27879 7.3001 2 7.3001C1.72121 7.3001 1.58181 7.3001 1.46589 7.32316C0.989863 7.41785 0.617746 7.78997 0.523058 8.26599Z" fill="white"/>
<path fill-rule="evenodd" clip-rule="evenodd" d="M30.3005 2.69675C32.5349 2.69685 34.6839 3.5554 36.3033 5.09496C36.4252 5.21382 36.6201 5.21232 36.7402 5.0916L37.9059 3.91518C37.9667 3.85395 38.0006 3.77101 38.0001 3.68472C37.9996 3.59842 37.9647 3.51589 37.9032 3.45537C33.6529 -0.617936 26.9475 -0.617936 22.6972 3.45537C22.6356 3.51584 22.6007 3.59835 22.6001 3.68465C22.5995 3.77094 22.6334 3.85391 22.6941 3.91518L23.8601 5.0916C23.9802 5.2125 24.1752 5.214 24.2971 5.09496C25.9167 3.5553 28.0659 2.69675 30.3005 2.69675ZM30.3005 6.52414C31.5282 6.52406 32.712 6.98038 33.622 7.80441C33.7451 7.92136 33.939 7.91883 34.059 7.7987L35.2233 6.62228C35.2846 6.56058 35.3187 6.47687 35.3178 6.38988C35.3169 6.3029 35.2812 6.21989 35.2186 6.15945C32.4474 3.5817 28.1559 3.5817 25.3848 6.15945C25.3222 6.21989 25.2865 6.30294 25.2857 6.38995C25.2848 6.47696 25.319 6.56067 25.3804 6.62228L26.5444 7.7987C26.6644 7.91883 26.8583 7.92136 26.9813 7.80441C27.8908 6.98092 29.0737 6.52465 30.3005 6.52414ZM32.5381 9.33174C32.6003 9.27063 32.6346 9.18653 32.6328 9.0993C32.6311 9.01207 32.5934 8.92944 32.5286 8.87092C31.2424 7.78302 29.3586 7.78302 28.0724 8.87092C28.0076 8.92939 27.9699 9.01199 27.968 9.09922C27.9662 9.18645 28.0004 9.27058 28.0626 9.33174L30.077 11.3642C30.136 11.424 30.2165 11.4576 30.3005 11.4576C30.3845 11.4576 30.465 11.424 30.524 11.3642L32.5381 9.33174Z" fill="white"/>
</svg>
