<svg width="20" height="10" viewBox="0 0 20 10" fill="none" xmlns="http://www.w3.org/2000/svg">
<path d="M10.0059 8.91005L10.0059 8.90991L9.99403 8.91005C8.80785 8.92415 7.66414 8.46929 6.81166 7.64456L1.18022 1.95332C1.10453 1.85941 1.06522 1.74112 1.06989 1.62026C1.07475 1.49442 1.12692 1.37505 1.21597 1.286C1.30501 1.19696 1.42438 1.14479 1.55022 1.13993C1.67072 1.13528 1.78865 1.17433 1.88243 1.24957L7.52642 6.89357L7.5263 6.89369L7.53582 6.90272C8.201 7.53388 9.08301 7.88574 9.99998 7.88574C10.9169 7.88574 11.799 7.53388 12.4641 6.90272L12.4643 6.90285L12.4735 6.89357L18.1175 1.24957C18.2113 1.17432 18.3292 1.13528 18.4497 1.13993C18.5756 1.14479 18.6949 1.19696 18.784 1.286C18.873 1.37505 18.9252 1.49442 18.9301 1.62026C18.9347 1.74113 18.8954 1.85941 18.8197 1.95332L13.1883 7.64456C12.3358 8.46929 11.1921 8.92415 10.0059 8.91005Z" fill="black" stroke="#91919F"/>
</svg>
