<svg width="24" height="24" viewBox="0 0 24 24" fill="none" xmlns="http://www.w3.org/2000/svg">
<path d="M23.67 9.56005L21.67 7.74005L14 0.780046C13.45 0.288091 12.738 0.0161133 12 0.0161133C11.2621 0.0161133 10.55 0.288091 10 0.780046L2.35002 7.78005L0.350019 9.60005C0.215344 9.7367 0.122823 9.9092 0.0834928 10.097C0.0441625 10.2848 0.0596837 10.4799 0.128204 10.6591C0.196725 10.8383 0.315353 10.994 0.469935 11.1077C0.624518 11.2213 0.80853 11.2881 1.00002 11.3C1.25331 11.2886 1.49279 11.1814 1.67002 11L2.00002 10.7V21C2.00002 21.7957 2.31609 22.5588 2.8787 23.1214C3.44131 23.684 4.20437 24 5.00002 24H19C19.7957 24 20.5587 23.684 21.1213 23.1214C21.6839 22.5588 22 21.7957 22 21V10.74L22.33 11.04C22.5134 11.2067 22.7522 11.2994 23 11.3C23.2016 11.2995 23.3984 11.2381 23.5645 11.1237C23.7305 11.0094 23.8582 10.8475 23.9306 10.6594C24.0031 10.4712 24.017 10.2656 23.9704 10.0694C23.9239 9.8732 23.8192 9.69566 23.67 9.56005Z" fill="#C6C6C6"/>
</svg>
