<svg width="28" height="20" viewBox="0 0 28 20" fill="none" xmlns="http://www.w3.org/2000/svg">
<path d="M28 4C28 5.06087 27.5786 6.07828 26.8284 6.82843C26.0783 7.57857 25.0609 8 24 8C23.3473 8.00105 22.7046 7.83952 22.13 7.53L16.35 13.83C16.7712 14.4756 16.997 15.2291 17 16C17 17.0609 16.5786 18.0783 15.8284 18.8284C15.0783 19.5786 14.0609 20 13 20C11.9391 20 10.9217 19.5786 10.1716 18.8284C9.42143 18.0783 9 17.0609 9 16C8.99873 15.455 9.11469 14.9162 9.34 14.42L6.44 12.17C5.74271 12.7124 4.88338 13.0047 4 13C3.20888 13 2.43552 12.7654 1.77772 12.3259C1.11992 11.8864 0.607234 11.2616 0.304484 10.5307C0.00173312 9.79983 -0.0774802 8.99556 0.0768607 8.21964C0.231202 7.44371 0.612165 6.73098 1.17157 6.17157C1.73098 5.61216 2.44372 5.2312 3.21964 5.07686C3.99556 4.92252 4.79983 5.00173 5.53074 5.30448C6.26164 5.60723 6.88635 6.11992 7.32588 6.77772C7.76541 7.43552 8 8.20887 8 9C7.99851 9.54362 7.88622 10.0812 7.67 10.58L10.56 12.83C11.1693 12.3612 11.9009 12.0779 12.667 12.014C13.4332 11.9502 14.2015 12.1085 14.88 12.47L20.65 6.17C20.2288 5.52441 20.003 4.77085 20 4C20 2.93913 20.4214 1.92172 21.1716 1.17157C21.9217 0.421427 22.9391 0 24 0C25.0609 0 26.0783 0.421427 26.8284 1.17157C27.5786 1.92172 28 2.93913 28 4Z" fill="#FCFCFC"/>
</svg>
