<svg width="32" height="32" viewBox="0 0 32 32" fill="none" xmlns="http://www.w3.org/2000/svg">
<path fill-rule="evenodd" clip-rule="evenodd" d="M15.952 24.674C21.0047 20.3427 28.102 16.1327 32 14.6167C31.3987 14.2313 30.46 13.678 29.4013 13.0767C24.3727 14.7367 18.502 18.418 13.2567 22.5807C14.1473 23.254 15.0853 23.952 15.952 24.674Z" fill="#E31837"/>
<path fill-rule="evenodd" clip-rule="evenodd" d="M13.642 12.9085C12.896 12.5472 12.078 12.2105 11.4527 11.9219C9.55201 12.8599 7.07335 14.2799 3.94601 16.5172C4.62001 16.8785 5.34135 17.3112 6.11135 17.7445C8.51735 15.9639 10.9473 14.2799 13.642 12.9085Z" fill="#012169"/>
<path fill-rule="evenodd" clip-rule="evenodd" d="M18.1413 10.8392C17.2266 10.3339 14.0513 9.15457 11.8613 8.6499C11.212 8.89057 10.2973 9.25124 9.67198 9.5159C10.466 9.73257 13.4253 10.5266 15.952 11.8019C16.6013 11.4886 17.516 11.1039 18.1413 10.8392Z" fill="#E31837"/>
<path fill-rule="evenodd" clip-rule="evenodd" d="M7.386 10.5269C4.57133 11.8262 1.612 13.6062 0 14.6409C0.577333 14.9055 1.15467 15.1222 1.94867 15.5069C5.50933 13.1009 8.30067 11.6329 9.40733 11.1522C8.61333 10.8629 7.86733 10.6709 7.386 10.5269Z" fill="#012169"/>
<path fill-rule="evenodd" clip-rule="evenodd" d="M20.2587 10.0935C20.908 9.87684 21.6547 9.68417 22.304 9.49151C20.4273 8.69751 18.0693 7.85551 15.952 7.32617C15.6153 7.42217 14.6047 7.6875 13.9067 7.9035C14.6287 8.12084 17.01 8.67417 20.2587 10.0935ZM8.39668 19.1402C9.16668 19.5975 9.98468 20.2228 10.7787 20.7522C16.048 16.6622 21.2447 13.5102 26.9473 11.7295C26.1533 11.3208 25.4553 10.9602 24.5653 10.5268C21.1487 11.3928 15.302 13.7262 8.39668 19.1402Z" fill="#E31837"/>
</svg>
