<svg width="24" height="24" viewBox="0 0 24 24" fill="none" xmlns="http://www.w3.org/2000/svg">
<path d="M0 15.4159C0 15.884 0.38 16.2661 0.848 16.2661H6.785V0.572143L0 7.71893V15.4159ZM15.416 24C15.883 24 16.262 23.6199 16.262 23.1508V17.2123H0.573L7.719 23.999H15.416V24ZM24 8.58615C24.0003 8.47486 23.9785 8.36462 23.936 8.26177C23.8936 8.15892 23.8312 8.06549 23.7524 7.98684C23.6737 7.9082 23.5802 7.8459 23.4774 7.80352C23.3745 7.76115 23.2643 7.73954 23.153 7.73994H17.215V23.4329L23.997 16.2831L24 8.58515V8.58615ZM8.585 0C8.36036 0 8.14492 0.0892595 7.98608 0.248143C7.82724 0.407026 7.738 0.622517 7.738 0.847212V6.7887H23.426L16.282 0H8.585Z" fill="#126BC5"/>
</svg>
