<svg width="24" height="18" viewBox="0 0 24 18" fill="none" xmlns="http://www.w3.org/2000/svg">
<path d="M23 1.5H1C0.867392 1.5 0.740215 1.44732 0.646447 1.35355C0.552678 1.25978 0.5 1.13261 0.5 1C0.5 0.867392 0.552678 0.740215 0.646447 0.646447C0.740215 0.552678 0.867392 0.5 1 0.5H23C23.1326 0.5 23.2598 0.552679 23.3536 0.646447C23.4473 0.740214 23.5 0.867391 23.5 1C23.5 1.13261 23.4473 1.25979 23.3536 1.35355C23.2598 1.44732 23.1326 1.5 23 1.5Z" fill="black" stroke="#212325"/>
<path d="M19 10H5C4.73478 10 4.48043 9.89464 4.29289 9.70711C4.10536 9.51957 4 9.26522 4 9C4 8.73478 4.10536 8.48043 4.29289 8.29289C4.48043 8.10536 4.73478 8 5 8H19C19.2652 8 19.5196 8.10536 19.7071 8.29289C19.8946 8.48043 20 8.73478 20 9C20 9.26522 19.8946 9.51957 19.7071 9.70711C19.5196 9.89464 19.2652 10 19 10Z" fill="black"/>
<path d="M15 18H9C8.73478 18 8.48043 17.8946 8.29289 17.7071C8.10536 17.5196 8 17.2652 8 17C8 16.7348 8.10536 16.4804 8.29289 16.2929C8.48043 16.1054 8.73478 16 9 16H15C15.2652 16 15.5196 16.1054 15.7071 16.2929C15.8946 16.4804 16 16.7348 16 17C16 17.2652 15.8946 17.5196 15.7071 17.7071C15.5196 17.8946 15.2652 18 15 18Z" fill="black"/>
</svg>
