<svg width="20" height="10" viewBox="0 0 20 10" fill="none" xmlns="http://www.w3.org/2000/svg">
<path d="M10.0059 8.91002L10.0059 8.90988L9.99403 8.91002C8.80785 8.92412 7.66414 8.46926 6.81166 7.64453L1.18022 1.95329C1.10453 1.85937 1.06522 1.74109 1.06989 1.62023C1.07475 1.49439 1.12692 1.37502 1.21597 1.28597C1.30501 1.19693 1.42438 1.14476 1.55022 1.1399C1.67072 1.13525 1.78865 1.1743 1.88243 1.24954L7.52642 6.89354L7.5263 6.89366L7.53582 6.90269C8.201 7.53385 9.08301 7.8857 9.99998 7.8857C10.9169 7.8857 11.799 7.53385 12.4641 6.90269L12.4643 6.90282L12.4735 6.89354L18.1175 1.24954C18.2113 1.17429 18.3292 1.13525 18.4497 1.1399C18.5756 1.14476 18.6949 1.19693 18.784 1.28597C18.873 1.37502 18.9252 1.49439 18.9301 1.62023C18.9347 1.7411 18.8954 1.85938 18.8197 1.95329L13.1883 7.64453C12.3358 8.46926 11.1921 8.92412 10.0059 8.91002Z" fill="black" stroke="#91919F"/>
</svg>
