<svg width="36" height="30" viewBox="0 0 36 30" fill="none" xmlns="http://www.w3.org/2000/svg">
<path d="M31.7499 12.5001H29.8624C29.5851 12.5119 29.3118 12.4311 29.0854 12.2704C28.8591 12.1097 28.6927 11.8783 28.6124 11.6126L26.5124 4.45006C26.1242 3.1591 25.329 2.02827 24.2454 1.22629C23.1618 0.424309 21.848 -0.00582704 20.4999 5.96259e-05H10.1374C8.88928 0.000350125 7.66978 0.374357 6.63607 1.0739C5.60235 1.77344 4.80177 2.76647 4.33745 3.92506L0.774947 12.8376C0.590472 13.2811 0.496957 13.7572 0.499947 14.2376V20.0001C0.499992 21.4647 1.01439 22.8828 1.95336 24.0068C2.89233 25.1308 4.19623 25.8894 5.63745 26.1501C5.89706 27.2342 6.51151 28.2004 7.38318 28.8953C8.25484 29.5902 9.33373 29.9739 10.4484 29.9854C11.5631 29.9969 12.6497 29.6355 13.5355 28.9587C14.4213 28.282 15.0555 27.3286 15.3374 26.2501H20.6624C20.9421 27.3201 21.5686 28.2671 22.444 28.9431C23.3193 29.619 24.394 29.9857 25.4999 29.9857C26.6059 29.9857 27.6806 29.619 28.5559 28.9431C29.4313 28.2671 30.0578 27.3201 30.3374 26.2501H31.7499C32.7445 26.2501 33.6983 25.855 34.4016 25.1517C35.1049 24.4484 35.4999 23.4946 35.4999 22.5001V16.2501C35.4999 15.2555 35.1049 14.3017 34.4016 13.5984C33.6983 12.8951 32.7445 12.5001 31.7499 12.5001ZM10.4999 27.5001C10.0055 27.5001 9.52215 27.3534 9.11102 27.0787C8.6999 26.804 8.37947 26.4136 8.19025 25.9568C8.00103 25.5 7.95152 24.9973 8.04798 24.5123C8.14445 24.0274 8.38255 23.5819 8.73218 23.2323C9.08181 22.8827 9.52727 22.6446 10.0122 22.5481C10.4972 22.4516 10.9998 22.5011 11.4567 22.6904C11.9135 22.8796 12.3039 23.2 12.5786 23.6111C12.8533 24.0223 12.9999 24.5056 12.9999 25.0001C12.9999 25.6631 12.7366 26.299 12.2677 26.7678C11.7989 27.2367 11.163 27.5001 10.4999 27.5001ZM16.7499 12.5001H3.58745L6.64995 4.86256C6.92783 4.16481 7.40883 3.56659 8.03064 3.14536C8.65244 2.72414 9.3864 2.49933 10.1374 2.50006H16.7499V12.5001ZM19.2499 12.5001V2.50006H20.4999C21.3124 2.49305 22.1052 2.7501 22.7589 3.23253C23.4127 3.71496 23.8921 4.39666 24.1249 5.17506L26.2624 12.3251C26.2821 12.3855 26.3072 12.4441 26.3374 12.5001H19.2499ZM25.4999 27.5001C25.0055 27.5001 24.5221 27.3534 24.111 27.0787C23.6999 26.804 23.3795 26.4136 23.1902 25.9568C23.001 25.5 22.9515 24.9973 23.048 24.5123C23.1444 24.0274 23.3825 23.5819 23.7322 23.2323C24.0818 22.8827 24.5273 22.6446 25.0122 22.5481C25.4972 22.4516 25.9998 22.5011 26.4567 22.6904C26.9135 22.8796 27.3039 23.2 27.5786 23.6111C27.8533 24.0223 27.9999 24.5056 27.9999 25.0001C27.9999 25.6631 27.7366 26.299 27.2677 26.7678C26.7989 27.2367 26.163 27.5001 25.4999 27.5001ZM32.9999 20.0001H31.7499C31.4184 20.0001 31.1005 19.8684 30.8661 19.6339C30.6316 19.3995 30.4999 19.0816 30.4999 18.7501C30.4999 18.4185 30.6316 18.1006 30.8661 17.8662C31.1005 17.6318 31.4184 17.5001 31.7499 17.5001H32.9999V20.0001Z" fill="#0077FF"/>
</svg>
