<svg width="21" height="21" viewBox="0 0 21 21" fill="none" xmlns="http://www.w3.org/2000/svg">
<path d="M19.19 7.45998L7.18996 19.46C6.91385 19.7302 6.56733 19.9173 6.18996 20L2.64996 20.71C2.32767 20.7737 1.99465 20.7571 1.68033 20.6615C1.366 20.566 1.08005 20.3945 0.847749 20.1622C0.615447 19.9299 0.443947 19.6439 0.348406 19.3296C0.252865 19.0153 0.236226 18.6823 0.299959 18.36L0.999959 14.85C1.08263 14.4726 1.26975 14.1261 1.53996 13.85L13.38 1.99998C13.7665 1.60387 14.2285 1.28909 14.7385 1.07417C15.2486 0.859254 15.7965 0.748535 16.35 0.748535C16.9034 0.748535 17.4513 0.859254 17.9614 1.07417C18.4715 1.28909 18.9334 1.60387 19.32 1.99998C20.0089 2.75992 20.3796 3.75549 20.3554 4.78095C20.3312 5.80641 19.914 6.78338 19.19 7.50998V7.45998Z" stroke="#212325" stroke-width="2" stroke-linecap="round" stroke-linejoin="round"/>
</svg>
