<svg width="31" height="33" viewBox="0 0 31 33" fill="none" xmlns="http://www.w3.org/2000/svg">
<path d="M29.25 26.2502C28.9185 26.2502 28.6005 26.3819 28.3661 26.6163C28.1317 26.8508 28 27.1687 28 27.5002C27.9983 27.9386 27.8812 28.3689 27.6607 28.7478C27.4402 29.1267 27.1239 29.441 26.7436 29.659C26.3632 29.8771 25.9322 29.9914 25.4938 29.9903C25.0554 29.9892 24.625 29.8728 24.2457 29.6528C23.8665 29.4329 23.5517 29.1171 23.3331 28.737C23.1145 28.357 22.9996 27.9262 23 27.4878C23.0005 27.0494 23.1162 26.6188 23.3356 26.2392C23.555 25.8596 23.8703 25.5444 24.25 25.3252C24.2149 25.5819 24.2604 25.8431 24.3803 26.0727C24.5001 26.3024 24.6883 26.4892 24.9189 26.6072C25.1495 26.7252 25.411 26.7687 25.6674 26.7316C25.9238 26.6946 26.1623 26.5788 26.35 26.4002L28.1125 24.6377C28.2297 24.5215 28.3226 24.3833 28.3861 24.2309C28.4496 24.0786 28.4822 23.9152 28.4822 23.7502C28.4822 23.5852 28.4496 23.4218 28.3861 23.2695C28.3226 23.1172 28.2297 22.9789 28.1125 22.8627L26.35 21.1002C26.2338 20.9831 26.0955 20.8901 25.9432 20.8266C25.7909 20.7631 25.6275 20.7305 25.4625 20.7305C25.2975 20.7305 25.1341 20.7631 24.9818 20.8266C24.8295 20.8901 24.6912 20.9831 24.575 21.1002C24.3853 21.2993 24.2666 21.5555 24.2372 21.8289C24.2078 22.1023 24.2694 22.3778 24.4125 22.6127C23.4931 22.8176 22.6502 23.278 21.9811 23.941C21.3119 24.6039 20.8436 25.4424 20.6301 26.3599C20.4166 27.2773 20.4666 28.2364 20.7744 29.1267C21.0822 30.0169 21.6352 30.8022 22.3697 31.3919C23.1042 31.9816 23.9904 32.3519 24.9261 32.46C25.8619 32.5681 26.8091 32.4097 27.6588 32.003C28.5084 31.5963 29.2259 30.9579 29.7286 30.1612C30.2312 29.3646 30.4986 28.4422 30.5 27.5002C30.5 27.1687 30.3683 26.8508 30.1339 26.6163C29.8995 26.3819 29.5815 26.2502 29.25 26.2502Z" fill="#7F3DFF"/>
<path d="M23.725 1.91271C23.1809 1.57666 22.56 1.38532 21.9211 1.35688C21.2823 1.32844 20.6468 1.46384 20.075 1.75021L19.7 1.93771C19.5389 2.01015 19.3642 2.04761 19.1875 2.04761C19.0108 2.04761 18.8361 2.01015 18.675 1.93771L14.3875 0.262713C13.4965 -0.0921283 12.5035 -0.0921283 11.6125 0.262713L7.325 1.97521C7.16385 2.04765 6.98918 2.08511 6.8125 2.08511C6.63582 2.08511 6.46115 2.04765 6.3 1.97521L5.925 1.78771C5.35649 1.50384 4.72517 1.36909 4.0903 1.39611C3.45544 1.42313 2.83785 1.61103 2.29551 1.94218C1.75318 2.27333 1.30389 2.73686 0.98982 3.28926C0.67575 3.84166 0.507203 4.46481 0.5 5.10021V23.7502C0.5 25.4078 1.15848 26.9975 2.33058 28.1696C3.50269 29.3417 5.0924 30.0002 6.75 30.0002H18.475C18.17 29.2015 18.0092 28.3551 18 27.5002V27.4002C18.002 26.054 18.3664 24.7332 19.0548 23.5763C19.7432 22.4194 20.7303 21.4691 21.9125 20.8252C22.0861 20.2218 22.4085 19.6716 22.85 19.2252L23 19.0877C23.2367 18.8792 23.4968 18.6989 23.775 18.5502C24.234 18.317 24.7361 18.1809 25.25 18.1502H25.5V5.10021C25.5 4.46175 25.3369 3.83386 25.0263 3.27605C24.7156 2.71824 24.2677 2.24897 23.725 1.91271ZM15.5 21.2502H8C7.66848 21.2502 7.35054 21.1185 7.11612 20.8841C6.8817 20.6497 6.75 20.3317 6.75 20.0002C6.75 19.6687 6.8817 19.3507 7.11612 19.1163C7.35054 18.8819 7.66848 18.7502 8 18.7502H15.5C15.8315 18.7502 16.1495 18.8819 16.3839 19.1163C16.6183 19.3507 16.75 19.6687 16.75 20.0002C16.75 20.3317 16.6183 20.6497 16.3839 20.8841C16.1495 21.1185 15.8315 21.2502 15.5 21.2502ZM18 13.7502H8C7.66848 13.7502 7.35054 13.6185 7.11612 13.3841C6.8817 13.1497 6.75 12.8317 6.75 12.5002C6.75 12.1687 6.8817 11.8507 7.11612 11.6163C7.35054 11.3819 7.66848 11.2502 8 11.2502H18C18.3315 11.2502 18.6495 11.3819 18.8839 11.6163C19.1183 11.8507 19.25 12.1687 19.25 12.5002C19.25 12.8317 19.1183 13.1497 18.8839 13.3841C18.6495 13.6185 18.3315 13.7502 18 13.7502Z" fill="#7F3DFF"/>
</svg>
