<svg width="24" height="18" viewBox="0 0 24 18" fill="none" xmlns="http://www.w3.org/2000/svg">
<path d="M1.37492 8.49999L2.23809 7.6448L7.6479 2.28499L1.37492 8.49999ZM1.37492 8.49999H2.59M1.37492 8.49999H2.59M2.59 8.49999H23C23.1326 8.49999 23.2598 8.55267 23.3536 8.64644C23.4473 8.74021 23.5 8.86738 23.5 8.99999C23.5 9.1326 23.4473 9.25978 23.3536 9.35355C23.2598 9.44731 23.1326 9.49999 23 9.49999H2.59H1.38289L2.23645 10.3535L7.59644 15.7135L7.5979 15.715C7.64476 15.7615 7.68196 15.8168 7.70734 15.8777C7.73273 15.9386 7.7458 16.004 7.7458 16.07C7.7458 16.136 7.73273 16.2014 7.70734 16.2623C7.68196 16.3232 7.64476 16.3785 7.5979 16.425L7.59789 16.425C7.55117 16.4713 7.49576 16.508 7.43484 16.5329C7.37393 16.5578 7.30869 16.5704 7.24289 16.57L7.2421 16.57C7.11123 16.5694 6.9858 16.5176 6.89273 16.4256C6.89252 16.4254 6.89231 16.4252 6.89211 16.425L1.23377 10.7667C1.23371 10.7666 1.23366 10.7665 1.2336 10.7665C0.765539 10.2977 0.50264 9.66241 0.50264 8.99999C0.50264 8.33789 0.765288 7.70284 1.23292 7.23418C1.23321 7.23389 1.23349 7.23361 1.23377 7.23333L6.942 1.5751L6.9425 1.5746C7.03618 1.48147 7.16291 1.4292 7.295 1.4292C7.42709 1.4292 7.55382 1.48147 7.6475 1.5746L7.6479 1.57499M2.59 8.49999L7.6479 1.57499M7.6479 1.57499C7.69476 1.62147 7.73196 1.67677 7.75734 1.7377C7.78273 1.79863 7.7958 1.86399 7.7958 1.92999C7.7958 1.996 7.78273 2.06135 7.75734 2.12228C7.73199 2.18313 7.69486 2.23836 7.64809 2.2848L7.6479 1.57499Z" fill="#7F3DFF" stroke="white"/>
</svg>
