<svg width="25" height="24" viewBox="0 0 25 24" fill="none" xmlns="http://www.w3.org/2000/svg">
<path d="M24.5 11H13.5V0C16.3412 0.228368 19.0083 1.46063 21.0239 3.47614C23.0394 5.49166 24.2716 8.1588 24.5 11Z" fill="#7F3DFF"/>
<path d="M24.5 13C24.301 15.2756 23.4566 17.4471 22.066 19.2594C20.6754 21.0716 18.7965 22.4493 16.65 23.2306C14.5035 24.0119 12.1786 24.1643 9.94844 23.6699C7.7183 23.1755 5.6756 22.0549 4.06038 20.4396C2.44515 18.8244 1.32449 16.7817 0.830092 14.5516C0.335694 12.3214 0.488094 9.99652 1.26938 7.85001C2.05067 5.7035 3.42839 3.82457 5.24065 2.43401C7.05292 1.04346 9.22442 0.199045 11.5 0V12C11.5 12.2652 11.6054 12.5196 11.7929 12.7071C11.9804 12.8946 12.2348 13 12.5 13H24.5Z" fill="#7F3DFF"/>
</svg>
