<svg width="29" height="20" viewBox="0 0 29 20" fill="none" xmlns="http://www.w3.org/2000/svg">
<path d="M28.5 4C28.5 5.06087 28.0786 6.07828 27.3284 6.82843C26.5783 7.57857 25.5609 8 24.5 8C23.8473 8.00105 23.2046 7.83952 22.63 7.53L16.85 13.83C17.2712 14.4756 17.497 15.2291 17.5 16C17.5 17.0609 17.0786 18.0783 16.3284 18.8284C15.5783 19.5786 14.5609 20 13.5 20C12.4391 20 11.4217 19.5786 10.6716 18.8284C9.92143 18.0783 9.5 17.0609 9.5 16C9.49873 15.455 9.61469 14.9162 9.84 14.42L6.94 12.17C6.24271 12.7124 5.38338 13.0047 4.5 13C3.70888 13 2.93552 12.7654 2.27772 12.3259C1.61992 11.8864 1.10723 11.2616 0.804484 10.5307C0.501733 9.79983 0.42252 8.99556 0.576861 8.21964C0.731202 7.44371 1.11216 6.73098 1.67157 6.17157C2.23098 5.61216 2.94372 5.2312 3.71964 5.07686C4.49556 4.92252 5.29983 5.00173 6.03074 5.30448C6.76164 5.60723 7.38635 6.11992 7.82588 6.77772C8.26541 7.43552 8.5 8.20887 8.5 9C8.49851 9.54362 8.38622 10.0812 8.17 10.58L11.06 12.83C11.6693 12.3612 12.4009 12.0779 13.167 12.014C13.9332 11.9502 14.7015 12.1085 15.38 12.47L21.15 6.17C20.7288 5.52441 20.503 4.77085 20.5 4C20.5 2.93913 20.9214 1.92172 21.6716 1.17157C22.4217 0.421427 23.4391 0 24.5 0C25.5609 0 26.5783 0.421427 27.3284 1.17157C28.0786 1.92172 28.5 2.93913 28.5 4Z" fill="#FCFCFC"/>
</svg>
